<?xml version="1.0" encoding="utf-8" ?>
<svg baseProfile="full" height="200mm" version="1.1" viewBox="0,0,200,200" width="200mm" xmlns="http://www.w3.org/2000/svg" xmlns:ev="http://www.w3.org/2001/xml-events" xmlns:xlink="http://www.w3.org/1999/xlink"><defs /><rect fill="#1a1a1a" height="200" width="200" x="0" y="0" /><text alignment-baseline="middle" fill="#e1ed5e" style="dominant-baseline: central; font-size:9.0px; font-family:Arial;" text-anchor="middle" x="100.0" y="100.0">2024</text><line stroke="#e1ed5e" stroke-width="0.3" x1="100.0" x2="100.0" y1="15.0" y2="10.0" /><path d="M 100.0 14.0 a86.0,86.0 0 0,1 42.35913384403234,11.155469271406648" fill="none" id="id13" stroke="none" /><text fill="#e1ed5e" style="font-size:6.75px; font-family:Arial;" text-anchor="middle"><textPath startOffset="22.145653131862478" xlink:href="#id13">January</textPath></text><path d="M 102.15924093988457 79.11130261209362 l 2.581339971631888 -24.972122622687905 a46.10518321645364,46.10518321645364 0 0,0 0.7865634236463259,0.08813607223387156 l -3.0096392968790107 24.92413078994706" fill="#c9ff1d" stroke="none" /><path d="M 103.23170211078529 79.25015418208739 l 0.2675502839890813 -1.7178647508334663 a22.738574834920477,22.738574834920477 0 0,0 0.3851725055853584,0.06337998921874251 l -0.29700029262751027 1.7130187631190554" fill="#ff0000" stroke="none" /><path d="M 103.58742460773223 79.30868818359171 l 0.561598022022627 -3.2391481521597623 a24.28747214284467,24.28747214284467 0 0,0 0.4101867989958746,0.07474969881824435 l -0.6171195545695553 3.229030279410152" fill="#ff1702" stroke="none" /><path d="M 106.38641147887787 79.99465700312896 l 1.2879986720185204 -4.034637495323471 a25.23523792694006,25.23523792694006 0 0,0 0.4115473904774425,0.1352838016197939 l -1.3570688001437052 4.011932772301655" fill="#ff2503" stroke="none" /><path d="M 107.06938296918511 80.22567764915836 l 1.235584576661462 -3.4561499662888293 a24.670373528070673,24.670373528070673 0 0,0 0.39755819212590576,0.14598887490338308 l -1.2947319204414924 3.4344302423767243" fill="#ff1c02" stroke="none" /><path d="M 107.74402155503746 80.48000691201159 l 1.068024552943441 -2.6921195586931725 a23.89623620652535,23.89623620652535 0 0,0 0.38000197502422056,0.15454349507797244 l -1.1140809891581012 2.673388807035906" fill="#ff1101" stroke="none" /><path d="M 108.4095320186766 80.7573450057729 l 1.9655949260053025 -4.497665855308274 a25.90841741900011,25.90841741900011 0 0,0 0.4060053774197441,0.1816010411399359 l -2.042513706280678 4.463261063258485" fill="#ff2e04" stroke="none" /><path d="M 108.73861861582097 80.90454125486305 l 1.7611668006898358 -3.848467299510146 a25.23230540666089,25.23230540666089 0 0,0 0.3923158328721821,0.18362361897186275 l -1.826971347433523 3.81766744896775" fill="#ff2403" stroke="none" /><path d="M 109.71004243097381 81.37971332152246 l 1.2160814290880984 -2.331996486623192 a23.630030732861474,23.630030732861474 0 0,0 0.358063812500183,0.190648812131902 l -1.255934057374841 2.310777206768717" fill="#ff0d01" stroke="none" /><path d="M 110.34350942703115 81.72400993836675 l 1.3725950569154688 -2.4252439460515123 a23.786723055513104,23.786723055513104 0 0,0 0.35363781442142544,0.20417288735184091 l -1.4140253391972917 2.4013241614234997" fill="#ff0f01" stroke="none" /><line stroke="#e1ed5e" stroke-width="0.3" x1="143.13028292997686" x2="145.6673583964461" y1="26.7553504044142" y2="22.446841604673864" /><path d="M 143.63769802327073 25.89364864446614 a86.0,86.0 0 0,1 29.32050498858742,28.57503671076993" fill="none" id="id14" stroke="none" /><text fill="#e1ed5e" style="font-size:6.75px; font-family:Arial;" text-anchor="middle"><textPath startOffset="20.669276256404974" xlink:href="#id14">February</textPath></text><path d="M 110.65571695917076 81.90426304109057 l 2.212627657623606 -3.7575254892544185 a25.360586996457883,25.360586996457883 0 0,0 0.37324412928955314,0.22412237546349334 l -2.2768045434705937 3.718989113255004" fill="#ff2603" stroke="none" /><path d="M 112.16784306229584 82.88440491214696 l 1.7993764082705161 -2.5310482603136575 a24.105472710341743,24.105472710341743 0 0,0 0.3352026564443755,0.24266087317398297 l -1.8425600750888596 2.4997866157665998" fill="#ff1402" stroke="none" /><path d="M 112.45986205192187 83.09580414077388 l 2.521871633712359 -3.4214032106017385 a25.25039250733846,25.25039250733846 0 0,0 0.3467083432533822,0.2601764044144441 l -2.5802329658765077 3.3776077789232795" fill="#ff2503" stroke="none" /><path d="M 112.7482090630111 83.31218511350987 l 1.644213742411028 -2.1523285687862344 a23.70849720301622,23.70849720301622 0 0,0 0.3212953586486655,0.24984121422280528 l -1.6809190456949192 2.1237863029426385" fill="#ff0e01" stroke="none" /><line stroke="#e1ed5e" stroke-width="0.3" x1="172.87174338648825" x2="177.1583165268699" y1="56.24261187166439" y2="53.66864786411523" /><path d="M 173.72905801456457 55.72781907015455 a86.0,86.0 0 0,1 12.242430191666344,42.057860355516425" fill="none" id="id15" stroke="none" /><text fill="#e1ed5e" style="font-size:6.75px; font-family:Arial;" text-anchor="middle"><textPath startOffset="22.145653131862474" xlink:href="#id15">March</textPath></text><line stroke="#e1ed5e" stroke-width="0.3" x1="184.99686870605535" x2="189.99668451229388" y1="99.2704041080226" y2="99.22748670261217" /><path d="M 185.99683186730306 99.26182062694052 a86.0,86.0 0 0,1 -10.086455211305974,41.156179273409016" fill="none" id="id16" stroke="none" /><text fill="#e1ed5e" style="font-size:6.75px; font-family:Arial;" text-anchor="middle"><textPath startOffset="21.40746469413373" xlink:href="#id16">April</textPath></text><path d="M 120.35273937422433 105.17358676015961 l 10.338046735724804 2.627891053603957 a31.666818724420228,31.666818724420228 0 0,0 -0.13844509849292905,0.5256985891345357 l -10.291412156427144 -2.804970147111296" fill="#ff7f0b" stroke="none" /><path d="M 120.05942366710727 106.21446072829308 l 2.9228231391467556 0.9054980798754503 a24.059872852814284,24.059872852814284 0 0,0 -0.12561004755149544,0.3934716849097361 l -2.9068483758180053 -0.95553879847657" fill="#ff1302" stroke="none" /><path d="M 119.94978838288452 106.5578916946017 l 4.001962722789526 1.3155246360609434 a25.21263702479578,25.21263702479578 0 0,0 -0.1386870065222984,0.41000349171707345 l -3.9787902946948623 -1.3840298022521773" fill="#ff2403" stroke="none" /><path d="M 119.83427380445688 106.89939002012753 l 40.64249932434461 14.13757100441023 a64.0311940949132,64.0311940949132 0 0,0 -0.3700388012972349,1.0350643855433996 l -40.393820353003434 -14.833170346334551" fill="#34ff5b" stroke="none" /><path d="M 119.58574465831526 107.57618678355244 l 4.184021436294699 1.6184693745763716 a25.486142941973114,25.486142941973114 0 0,0 -0.16134102917660292,0.40668478928594726 l -4.155621732151971 -1.690055181075883" fill="#ff2803" stroke="none" /><path d="M 119.4528033332814 107.91128576633889 l 4.015120429069035 1.6329145242672896 a25.33446673807639,25.33446673807639 0 0,0 -0.16729694185815436,0.40145175814633793 l -3.986497642674395 -1.7015987918549054" fill="#ff2603" stroke="none" /><path d="M 119.31412917781788 108.2440532568976 l 4.01326237858004 1.7130230660834505 a25.3635676853075,25.3635676853075 0 0,0 -0.17436380023465617,0.39897849772689287 l -3.983264696328418 -1.781663633586188" fill="#ff2603" stroke="none" /><path d="M 119.16976305983485 108.57439118712176 l 3.8306123341352634 1.7133841736368491 a25.196340808478077,25.196340808478077 0 0,0 -0.1799925023846775,0.39331610118536986 l -3.8006353668955297 -1.778889257036908" fill="#ff2403" stroke="none" /><path d="M 118.5362547648365 109.86951160357373 l 3.8418960640877624 2.045593258470347 a25.352541458315173,25.352541458315173 0 0,0 -0.20783609100566064,0.38239499838362206 l -3.806214623466763 -2.111243090328572" fill="#ff2603" stroke="none" /><line stroke="#e1ed5e" stroke-width="0.3" x1="174.33088141563837" x2="178.70328620479359" y1="141.23008692659167" y2="143.65538615756765" /><path d="M 175.20536237346943 141.71514677278685 a86.0,86.0 0 0,1 -30.301960400862466,31.631185727798858" fill="none" id="id17" stroke="none" /><text fill="#e1ed5e" style="font-size:6.75px; font-family:Arial;" text-anchor="middle"><textPath startOffset="22.145653131862474" xlink:href="#id17">May</textPath></text><path d="M 118.36410011445183 110.18625677009912 l 38.07899728812831 21.121777898582383 a64.54468436062348,64.54468436062348 0 0,0 -0.5457610670320562,0.9643075116302214 l -37.71080285607488 -21.77234218031173" fill="#35ff61" stroke="none" /><path d="M 118.00360718960297 110.81064883170644 l 3.695923565209444 2.2192959083989496 a25.311046894770087,25.311046894770087 0 0,0 -0.22687380375082297,0.37058130819869456 l -3.6572817970032165 -2.282414332722201" fill="#ff2603" stroke="none" /><path d="M 117.81537515405839 111.11811171558189 l 3.647303739798206 2.2761872870523545 a25.299285188968597,25.299285188968597 0 0,0 -0.23309352850364654,0.36646174261374564 l -3.60769251966867 -2.338462704344772" fill="#ff2503" stroke="none" /><path d="M 117.62189284568427 111.42229804090321 l 52.865678537052815 34.26689412270965 a84.0,84.0 0 0,0 -0.7947022443170932,1.2032804866437559 l -52.269651853815 -35.169354487692466" fill="#4dd2ff" stroke="none" /><line stroke="#e1ed5e" stroke-width="0.3" x1="143.1302829299769" x2="145.66735839644613" y1="173.24464959558577" y2="177.55315839532614" /><path d="M 143.63769802327073 174.10635135553383 a86.0,86.0 0 0,1 -40.68552437913181,11.842963189579606" fill="none" id="id18" stroke="none" /><text fill="#e1ed5e" style="font-size:6.75px; font-family:Arial;" text-anchor="middle"><textPath startOffset="21.407464694133747" xlink:href="#id18">June</textPath></text><line stroke="#e1ed5e" stroke-width="0.3" x1="101.45913802915013" x2="101.54496967792366" y1="184.9874750549273" y2="189.98673829345242" /><path d="M 101.47630435890484 185.9873277026323 a86.0,86.0 0 0,1 -42.54439059252881,-10.42667462771756" fill="none" id="id19" stroke="none" /><text fill="#e1ed5e" style="font-size:6.75px; font-family:Arial;" text-anchor="middle"><textPath startOffset="22.145653131862474" xlink:href="#id19">July</textPath></text><line stroke="#e1ed5e" stroke-width="0.3" x1="58.13341422392154" x2="55.67067388415222" y1="173.97424548756322" y2="178.32567169271397" /><path d="M 57.64086615596768 174.84453072859336 a86.0,86.0 0 0,1 -31.369924170532247,-30.572349798747897" fill="none" id="id20" stroke="none" /><text fill="#e1ed5e" style="font-size:6.75px; font-family:Arial;" text-anchor="middle"><textPath startOffset="22.145653131862474" xlink:href="#id20">August</textPath></text><line stroke="#e1ed5e" stroke-width="0.3" x1="26.387840678322732" x2="22.057713659400548" y1="142.50000000000003" y2="145.00000000000006" /><path d="M 25.521815274538298 143.00000000000003 a86.0,86.0 0 0,1 -11.493303480769221,-40.785679425670985" fill="none" id="id21" stroke="none" /><text fill="#e1ed5e" style="font-size:6.75px; font-family:Arial;" text-anchor="middle"><textPath startOffset="21.40746469413373" xlink:href="#id21">September</textPath></text><line stroke="#e1ed5e" stroke-width="0.3" x1="15.003131293944662" x2="10.003315487706104" y1="100.72959589197737" y2="100.7725132973878" /><path d="M 14.003168132696942 100.73817937305945 a86.0,86.0 0 0,1 10.791469493833604,-42.45332614584628" fill="none" id="id22" stroke="none" /><text fill="#e1ed5e" style="font-size:6.75px; font-family:Arial;" text-anchor="middle"><textPath startOffset="22.145653131862435" xlink:href="#id22">October</textPath></text><line stroke="#e1ed5e" stroke-width="0.3" x1="26.387840678322718" x2="22.05771365940052" y1="57.49999999999999" y2="54.99999999999999" /><path d="M 25.521815274538284 56.99999999999999 a86.0,86.0 0 0,1 29.574782752854787,-30.34633250058573" fill="none" id="id23" stroke="none" /><text fill="#e1ed5e" style="font-size:6.75px; font-family:Arial;" text-anchor="middle"><textPath startOffset="21.40746469413373" xlink:href="#id23">November</textPath></text><line stroke="#e1ed5e" stroke-width="0.3" x1="56.869717070023135" x2="54.33264160355391" y1="26.7553504044142" y2="22.446841604673864" /><path d="M 56.362301976729285 25.89364864446614 a86.0,86.0 0 0,1 42.16139366436587,-11.88097634709845" fill="none" id="id24" stroke="none" /><text fill="#e1ed5e" style="font-size:6.75px; font-family:Arial;" text-anchor="middle"><textPath startOffset="22.145653131862474" xlink:href="#id24">December</textPath></text></svg>