<?xml version="1.0" encoding="utf-8" ?>
<svg baseProfile="full" height="200mm" version="1.1" viewBox="0,0,200,200" width="200mm" xmlns="http://www.w3.org/2000/svg" xmlns:ev="http://www.w3.org/2001/xml-events" xmlns:xlink="http://www.w3.org/1999/xlink"><defs /><rect fill="#1a1a1a" height="200" width="200" x="0" y="0" /><text alignment-baseline="middle" fill="#e1ed5e" style="dominant-baseline: central; font-size:9.0px; font-family:Arial;" text-anchor="middle" x="100.0" y="100.0">2024</text><line stroke="#e1ed5e" stroke-width="0.3" x1="100.0" x2="100.0" y1="15.0" y2="10.0" /><path d="M 100.0 14.0 a86.0,86.0 0 0,1 42.35913384403234,11.155469271406648" fill="none" id="id13" stroke="none" /><text fill="#e1ed5e" style="font-size:6.75px; font-family:Arial;" text-anchor="middle"><textPath startOffset="22.145653131862478" xlink:href="#id13">January</textPath></text><path d="M 102.15924093988457 79.11130261209362 l 2.4809629450908943 -24.001065945601763 a45.12895239458271,45.12895239458271 0 0,0 0.7699087353021783,0.08626987966655426 l -2.892607581993869 23.954940305428238" fill="#d4ff1c" stroke="none" /><path d="M 103.23170211078529 79.25015418208739 l 0.25714642310591235 -1.6510645007372995 a22.67096926019334,22.67096926019334 0 0,0 0.3840273234972884,0.06319154994194348 l -0.2854512496562713 1.6464069522996876" fill="#ff0000" stroke="none" /><path d="M 103.58742460773223 79.30868818359171 l 0.5397599301085669 -3.113191841246558 a24.159636723193813,24.159636723193813 0 0,0 0.40802780932101346,0.07435625897975459 l -0.593122472980634 3.103467408335437" fill="#ff1602" stroke="none" /><path d="M 106.38641147887787 79.99465700312896 l 1.2379140344633086 -3.8777480815298535 a25.07054803933447,25.07054803933447 0 0,0 0.40886155515152517,0.13440091420069664 l -1.3042983272625763 3.8559262459271353" fill="#ff2303" stroke="none" /><path d="M 107.06938296918511 80.22567764915836 l 1.1875380941337146 -3.3217554035003776 a24.52764874749495,24.52764874749495 0 0,0 0.39525821050330534,0.14514428979349922 l -1.2443854562911447 3.3008802646981565" fill="#ff1b02" stroke="none" /><path d="M 107.74402155503746 80.48000691201159 l 1.026493747208672 -2.587434798311283 a23.78361424205486,23.78361424205486 0 0,0 0.3782110415667496,0.15381513803205973 l -1.0707592499658611 2.56943240369993" fill="#ff1001" stroke="none" /><path d="M 108.4095320186766 80.7573450057729 l 1.8891615324094384 -4.322771292835981 a25.717550523916245,25.717550523916245 0 0,0 0.40301434232399835,0.18026318918603934 l -1.9630892775890683 4.289704352740089" fill="#ff2c04" stroke="none" /><path d="M 108.73861861582097 80.90454125486305 l 1.6926827231801989 -3.6988172307433933 a25.067729551948723,25.067729551948723 0 0,0 0.3897569817299075,0.18242594743330973 l -1.7559284187816115 3.6692150517395503" fill="#ff2303" stroke="none" /><path d="M 109.71004243097381 81.37971332152246 l 1.1687933387067233 -2.241315338148473 a23.527760335479773,23.527760335479773 0 0,0 0.35651411801157296,0.18982368710360636 l -1.207096272504856 2.2209211833222935" fill="#ff0d01" stroke="none" /><path d="M 110.34350942703115 81.72400993836675 l 1.319220835785294 -2.3309368115335833 a23.678359578722095,23.678359578722095 0 0,0 0.35202677186604503,0.2032427514988161 l -1.3590400755117364 2.3079471627585955" fill="#ff0f01" stroke="none" /><line stroke="#e1ed5e" stroke-width="0.3" x1="143.13028292997686" x2="145.6673583964461" y1="26.7553504044142" y2="22.446841604673864" /><path d="M 143.63769802327073 25.89364864446614 a86.0,86.0 0 0,1 29.32050498858742,28.57503671076993" fill="none" id="id14" stroke="none" /><text fill="#e1ed5e" style="font-size:6.75px; font-family:Arial;" text-anchor="middle"><textPath startOffset="20.669276256404974" xlink:href="#id14">February</textPath></text><path d="M 110.65571695917076 81.90426304109057 l 2.126588241058801 -3.6114117499142626 a25.1910228315327,25.1910228315327 0 0,0 0.37074857076383566,0.22262386427202038 l -2.188269568380071 3.574373885106321" fill="#ff2503" stroke="none" /><path d="M 112.16784306229584 82.88440491214696 l 1.7294065261646632 -2.432626858563376 a23.98471445296612,23.98471445296612 0 0,0 0.33352343242971694,0.24144524448543353 l -1.770910968968348 2.4025808427048676" fill="#ff1302" stroke="none" /><path d="M 112.45986205192187 83.09580414077388 l 2.423807070852748 -3.28835979723806 a25.08511332435311,25.08511332435311 0 0,0 0.34443892618628236,0.2584733915388546 l -2.479898985949797 3.2462673784351903" fill="#ff2303" stroke="none" /><path d="M 112.7482090630111 83.31218511350987 l 1.5802774580491026 -2.068633920174174 a23.603175587645463,23.603175587645463 0 0,0 0.31986804987011924,0.24873133028360778 l -1.6155554525544478 2.041201538269775" fill="#ff0e01" stroke="none" /><line stroke="#e1ed5e" stroke-width="0.3" x1="172.87174338648825" x2="177.1583165268699" y1="56.24261187166439" y2="53.66864786411523" /><path d="M 173.72905801456457 55.72781907015455 a86.0,86.0 0 0,1 12.242430191666344,42.057860355516425" fill="none" id="id15" stroke="none" /><text fill="#e1ed5e" style="font-size:6.75px; font-family:Arial;" text-anchor="middle"><textPath startOffset="22.145653131862474" xlink:href="#id15">March</textPath></text><line stroke="#e1ed5e" stroke-width="0.3" x1="184.99686870605535" x2="189.99668451229388" y1="99.2704041080226" y2="99.22748670261217" /><path d="M 185.99683186730306 99.26182062694052 a86.0,86.0 0 0,1 -10.086455211305974,41.156179273409016" fill="none" id="id16" stroke="none" /><text fill="#e1ed5e" style="font-size:6.75px; font-family:Arial;" text-anchor="middle"><textPath startOffset="21.40746469413373" xlink:href="#id16">April</textPath></text><path d="M 120.35273937422433 105.17358676015961 l 9.9360452934592 2.525703858994452 a31.252032776821004,31.252032776821004 0 0,0 -0.13663168357845348,0.5188127573323791 l -9.891224129076017 -2.6958971206996343" fill="#ff7a0b" stroke="none" /><path d="M 120.05942366710727 106.21446072829308 l 2.809167325097865 0.8702872181542738 a23.940887774547033,23.940887774547033 0 0,0 -0.12498885884320518,0.3915258201285157 l -2.793813750477405 -0.918382071974173" fill="#ff1302" stroke="none" /><path d="M 119.94978838288452 106.5578916946017 l 3.846343888054031 1.2643696341005697 a25.048825987469233,25.048825987469233 0 0,0 -0.13778593209760462,0.4073396252908989 l -3.824072534384061 -1.3302109338656292" fill="#ff2303" stroke="none" /><path d="M 119.83427380445688 106.89939002012753 l 39.06209020419568 13.58782267388028 a62.35789907789726,62.35789907789726 0 0,0 -0.36036876326240763,1.0080155681177376 l -38.823081270889325 -14.25637319837894" fill="#32ff47" stroke="none" /><path d="M 119.58574465831526 107.57618678355244 l 4.021323134104951 1.5555341761317691 a25.311696455225206,25.311696455225206 0 0,0 -0.16023668883870906,0.4039011302259524 l -3.9940277703001175 -1.6243363235712858" fill="#ff2703" stroke="none" /><path d="M 119.4528033332814 107.91128576633889 l 3.8589899486584454 1.5694176171016943 a25.165918275808597,25.165918275808597 0 0,0 -0.16618392682674196,0.3987809272498434 l -3.831480177295218 -1.6354310537928156" fill="#ff2403" stroke="none" /><path d="M 119.31412917781788 108.2440532568976 l 3.8572041496300478 1.646411087940607 a25.193887614423762,25.193887614423762 0 0,0 -0.17319732151405753,0.39630936613565365 l -3.8283729460990243 -1.7123825238521055" fill="#ff2503" stroke="none" /><path d="M 119.16976305983485 108.57439118712176 l 3.681656566914613 1.6467581535999218 a25.033163459761248,25.033163459761248 0 0,0 -0.17882682918033047,0.39076889486335215 l -3.6528452728792264 -1.7097160306779629" fill="#ff2303" stroke="none" /><path d="M 118.5362547648365 109.86951160357373 l 3.692501521938833 1.9660490794570928 a25.18329014919533,25.18329014919533 0 0,0 -0.20644859577000954,0.3798421634268694 l -3.658207576553485 -2.0291460763585656" fill="#ff2503" stroke="none" /><line stroke="#e1ed5e" stroke-width="0.3" x1="174.33088141563837" x2="178.70328620479359" y1="141.23008692659167" y2="143.65538615756765" /><path d="M 175.20536237346943 141.71514677278685 a86.0,86.0 0 0,1 -30.301960400862466,31.631185727798858" fill="none" id="id17" stroke="none" /><text fill="#e1ed5e" style="font-size:6.75px; font-family:Arial;" text-anchor="middle"><textPath startOffset="22.145653131862474" xlink:href="#id17">May</textPath></text><path d="M 118.36410011445183 110.18625677009912 l 36.598271555194934 20.300444295097897 a62.851421952021695,62.851421952021695 0 0,0 -0.531443595221046,0.9390099108138185 l -36.24439459495251 -20.925710976010837" fill="#32ff4d" stroke="none" /><path d="M 118.00360718960297 110.81064883170644 l 3.5522052553875967 2.132997192713371 a25.14340912782293,25.14340912782293 0 0,0 -0.2253711943171747,0.3681269086143131 l -3.5150660966150173 -2.193661217452241" fill="#ff2403" stroke="none" /><path d="M 117.81537515405839 111.11811171558189 l 3.505476042433203 2.1876763143654485 a25.1321047833409,25.1321047833409 0 0,0 -0.23155322132289574,0.3640401238873828 l -3.4674051294844173 -2.2475301129315035" fill="#ff2403" stroke="none" /><path d="M 117.62189284568427 111.42229804090321 l 50.8099634139237 32.934404416342865 a81.550205419829,81.550205419829 0 0,0 -0.7715253722816439,1.168187748374644 l -50.23711360272133 -33.801772043056566" fill="#4ae9ff" stroke="none" /><path d="M 117.21940702142032 112.02048342749411 l 8.342787692545924 5.823913742941324 a31.174481695305985,31.174481695305985 0 0,0 -0.31008945415731126,0.43617965083850513 l -8.241583139858651 -5.9662706204893325" fill="#ff790b" stroke="none" /><path d="M 117.01052211995028 112.31430620078461 l 3.312022961487851 2.3976492081896223 a25.088791731423242,25.088791731423242 0 0,0 -0.2555448515444469,0.34669566992981826 l -3.270376090359576 -2.4541511873883177" fill="#ff2303" stroke="none" /><path d="M 116.79662413953412 112.60449989151573 l 16.162004657237244 12.128269600874335 a41.2065662113099,41.2065662113099 0 0,0 -0.42942740644590965,0.5621342598426372 l -15.95142527343703 -12.403924773957849" fill="#fffb17" stroke="none" /><path d="M 116.57777611688842 112.89097897827486 l 3.3008100125447606 2.5667298305256803 a25.18132141336039,25.18132141336039 0 0,0 -0.26828128195110457,0.33896463568719576 l -3.2562622999520947 -2.623014410127559" fill="#ff2503" stroke="none" /><path d="M 116.35404254752997 113.17365903436017 l 4.850641801222503 3.907333676147928 a27.22864209443172,27.22864209443172 0 0,0 -0.2963425123093032,0.361489680398854 l -4.782852469674572 -3.9900256382452746" fill="#ff4206" stroke="none" /><path d="M 116.1254893667686 113.45245675266167 l 4.713123249977611 3.9318550431684325 a27.137834703701994,27.137834703701994 0 0,0 -0.30149544623899854,0.35516087757002385 l -4.644933240231498 -4.012182703188013" fill="#ff4106" stroke="none" /><path d="M 115.41159269507618 114.26474011684316 l 3.224079906101509 2.9841602283693605 a25.39316554542496,25.39316554542496 0 0,0 -0.2988463203581515,0.3173644360209491 l -3.1723777520070975 -3.039066124334807" fill="#ff2803" stroke="none" /><path d="M 115.16444852881244 114.52719865689866 l 3.01026825950315 2.883768897581102 a25.1686734159476,25.1686734159476 0 0,0 -0.30156049661796275,0.3094276355597932 l -2.96032096173438 -2.9350192252086327" fill="#ff2503" stroke="none" /><path d="M 114.91283532996324 114.78537596483092 l 2.9950727976494798 2.969474038669926 a25.217610357720893,25.217610357720893 0 0,0 -0.3074243812662303,0.30479683824068143 l -2.9436564962532845 -3.020450887139269" fill="#ff2503" stroke="none" /><path d="M 114.65682725009322 115.03919595460226 l 2.8053326271457757 2.878518411767196 a25.019422768982054,25.019422768982054 0 0,0 -0.31015448259685274,0.2971209783495475 l -2.7555056586836106 -2.9262515204223236" fill="#ff2203" stroke="none" /><path d="M 114.39649973595853 115.28858382429668 l 43.18949920787558 45.86575147289004 a84.0,84.0 0 0,0 -1.058280914744131,0.9795290154704817 l -42.39578852181748 -46.6003982344929" fill="#4dd2ff" stroke="none" /><path d="M 113.59037401385872 116.0094264158162 l 2.6860586237432575 3.164170304771217 a25.15052823719843,25.15052823719843 0 0,0 -0.33153865359250073,0.2765813364076879 l -2.6313456359888616 -3.2098138250907753" fill="#ff2403" stroke="none" /><path d="M 113.31354834802062 116.24036423190432 l 2.5706044997207878 3.1357195152143316 a25.05471877842111,25.05471877842111 0 0,0 -0.33495680933369115,0.26981749525078025 l -2.516396920031844 -3.1793853042585156" fill="#ff2303" stroke="none" /><path d="M 113.03279911837588 116.46651593811092 l 2.422066364319805 3.0602017286524856 a24.902722138868846,24.902722138868846 0 0,0 -0.33747938439210245,0.26242601052910797 l -2.3691770352924717 -3.1013287908023868" fill="#ff2103" stroke="none" /><path d="M 112.7482090630111 116.68781488649013 l 2.6109986751449004 3.4178810799481405 a25.30107255905732,25.30107255905732 0 0,0 -0.3474042214169527,0.2606986043615506 l -2.551941464817181 -3.462198711573706" fill="#ff2603" stroke="none" /><path d="M 112.45986205192187 116.90419585922612 l 26.06515978615601 35.36239520880116 a64.93053095036854,64.93053095036854 0 0,0 -0.9029022878099251,0.6536316265354503 l -25.454276487972116 -35.80462760670969" fill="#35ff66" stroke="none" /><path d="M 111.5731344415666 117.5232005979908 l 2.279684353615215 3.451732668465649 a25.136595117566017,25.136595117566017 0 0,0 -0.3621038656762868,0.23471135091657896 l -2.2200948556819187 -3.4903578610861223" fill="#ff2403" stroke="none" /><line stroke="#e1ed5e" stroke-width="0.3" x1="143.1302829299769" x2="145.66735839644613" y1="173.24464959558577" y2="177.55315839532614" /><path d="M 143.63769802327073 174.10635135553383 a86.0,86.0 0 0,1 -40.68552437913181,11.842963189579606" fill="none" id="id18" stroke="none" /><text fill="#e1ed5e" style="font-size:6.75px; font-family:Arial;" text-anchor="middle"><textPath startOffset="21.407464694133747" xlink:href="#id18">June</textPath></text><line stroke="#e1ed5e" stroke-width="0.3" x1="101.45913802915013" x2="101.54496967792366" y1="184.9874750549273" y2="189.98673829345242" /><path d="M 101.47630435890484 185.9873277026323 a86.0,86.0 0 0,1 -42.54439059252881,-10.42667462771756" fill="none" id="id19" stroke="none" /><text fill="#e1ed5e" style="font-size:6.75px; font-family:Arial;" text-anchor="middle"><textPath startOffset="22.145653131862474" xlink:href="#id19">July</textPath></text><line stroke="#e1ed5e" stroke-width="0.3" x1="58.13341422392154" x2="55.67067388415222" y1="173.97424548756322" y2="178.32567169271397" /><path d="M 57.64086615596768 174.84453072859336 a86.0,86.0 0 0,1 -31.369924170532247,-30.572349798747897" fill="none" id="id20" stroke="none" /><text fill="#e1ed5e" style="font-size:6.75px; font-family:Arial;" text-anchor="middle"><textPath startOffset="22.145653131862474" xlink:href="#id20">August</textPath></text><line stroke="#e1ed5e" stroke-width="0.3" x1="26.387840678322732" x2="22.057713659400548" y1="142.50000000000003" y2="145.00000000000006" /><path d="M 25.521815274538298 143.00000000000003 a86.0,86.0 0 0,1 -11.493303480769221,-40.785679425670985" fill="none" id="id21" stroke="none" /><text fill="#e1ed5e" style="font-size:6.75px; font-family:Arial;" text-anchor="middle"><textPath startOffset="21.40746469413373" xlink:href="#id21">September</textPath></text><line stroke="#e1ed5e" stroke-width="0.3" x1="15.003131293944662" x2="10.003315487706104" y1="100.72959589197737" y2="100.7725132973878" /><path d="M 14.003168132696942 100.73817937305945 a86.0,86.0 0 0,1 10.791469493833604,-42.45332614584628" fill="none" id="id22" stroke="none" /><text fill="#e1ed5e" style="font-size:6.75px; font-family:Arial;" text-anchor="middle"><textPath startOffset="22.145653131862435" xlink:href="#id22">October</textPath></text><line stroke="#e1ed5e" stroke-width="0.3" x1="26.387840678322718" x2="22.05771365940052" y1="57.49999999999999" y2="54.99999999999999" /><path d="M 25.521815274538284 56.99999999999999 a86.0,86.0 0 0,1 29.574782752854787,-30.34633250058573" fill="none" id="id23" stroke="none" /><text fill="#e1ed5e" style="font-size:6.75px; font-family:Arial;" text-anchor="middle"><textPath startOffset="21.40746469413373" xlink:href="#id23">November</textPath></text><line stroke="#e1ed5e" stroke-width="0.3" x1="56.869717070023135" x2="54.33264160355391" y1="26.7553504044142" y2="22.446841604673864" /><path d="M 56.362301976729285 25.89364864446614 a86.0,86.0 0 0,1 42.16139366436587,-11.88097634709845" fill="none" id="id24" stroke="none" /><text fill="#e1ed5e" style="font-size:6.75px; font-family:Arial;" text-anchor="middle"><textPath startOffset="22.145653131862474" xlink:href="#id24">December</textPath></text></svg>