<?xml version="1.0" encoding="utf-8" ?>
<svg baseProfile="full" height="200mm" version="1.1" viewBox="0,0,200,200" width="200mm" xmlns="http://www.w3.org/2000/svg" xmlns:ev="http://www.w3.org/2001/xml-events" xmlns:xlink="http://www.w3.org/1999/xlink"><defs /><rect fill="#1a1a1a" height="200" width="200" x="0" y="0" /><text alignment-baseline="middle" fill="#e1ed5e" style="dominant-baseline: central; font-size:9.0px; font-family:Arial;" text-anchor="middle" x="100.0" y="100.0">2024</text><line stroke="#e1ed5e" stroke-width="0.3" x1="100.0" x2="100.0" y1="15.0" y2="10.0" /><path d="M 100.0 14.0 a86.0,86.0 0 0,1 42.35913384403234,11.155469271406648" fill="none" id="id13" stroke="none" /><text fill="#e1ed5e" style="font-size:6.75px; font-family:Arial;" text-anchor="middle"><textPath startOffset="22.145653131862478" xlink:href="#id13">January</textPath></text><path d="M 102.15924093988457 79.11130261209362 l 1.8281924360445527 -17.686103416247548 a38.780341437481276,38.780341437481276 0 0,0 0.6616001933672616,0.07413368163274717 l -2.131528531012611 17.65211397410783" fill="#ffe115" stroke="none" /><path d="M 103.23170211078529 79.25015418208739 l 0.18948817700335188 -1.2166500260079525 a22.231317609315,22.231317609315 0 0,0 0.3765799909717035,0.06196609420890088 l -0.21034567102812596 1.2132179333033832" fill="#ff0000" stroke="none" /><path d="M 103.58742460773223 79.30868818359171 l 0.39774274882137167 -2.2940744791793133 a23.328299166830117,23.328299166830117 0 0,0 0.39398749713354936,0.07179764639179165 l -0.43706497950597467 2.286908658856156" fill="#ff1001" stroke="none" /><path d="M 106.38641147887787 79.99465700312896 l 0.9122043030740633 -2.8574669869885625 a23.999539009960753,23.999539009960753 0 0,0 0.39139506751655095,0.1286593327865534 l -0.9611221082383566 2.8413867327999878" fill="#ff1a02" stroke="none" /><path d="M 107.06938296918511 80.22567764915836 l 0.8750828647021482 -2.4477625170040644 a23.599482902376046,23.599482902376046 0 0,0 0.38030100140557416,0.13965179543387882 l -0.916973017761847 2.4323798725614636" fill="#ff1402" stroke="none" /><path d="M 107.74402155503746 80.48000691201159 l 0.756411178170648 -1.9066502933431957 a23.051212619785478,23.051212619785478 0 0,0 0.36656426754895227,0.14907849643176543 l -0.7890299069100398 1.8933845403321368" fill="#ff0c01" stroke="none" /><path d="M 108.4095320186766 80.7573450057729 l 1.3921009303469218 -3.185399361143518 a24.476307536776098,24.476307536776098 0 0,0 0.38356308371127157,0.17156288861858793 l -1.446577416913825 3.1610327216150775" fill="#ff2103" stroke="none" /><path d="M 108.73861861582097 80.90454125486305 l 1.2473180049966293 -2.7256149459775947 a23.99746209973124,23.99746209973124 0 0,0 0.37311629590490764,0.17463726622972497 l -1.2939230147730418 2.7038014481773365" fill="#ff1a02" stroke="none" /><path d="M 109.71004243097381 81.37971332152246 l 0.861270074730845 -1.6515989310124737 a22.86267688302304,22.86267688302304 0 0,0 0.3464361659636196,0.18445774528097775 l -0.8894950564810241 1.6365707180089228" fill="#ff0901" stroke="none" /><path d="M 110.34350942703115 81.72400993836675 l 0.9721183293879008 -1.7176399414491774 a22.973651695409668,22.973651695409668 0 0,0 0.34154986190755476,0.19719390471400627 l -1.001460659155853 1.7006991394589994" fill="#ff0b01" stroke="none" /><line stroke="#e1ed5e" stroke-width="0.3" x1="143.13028292997686" x2="145.6673583964461" y1="26.7553504044142" y2="22.446841604673864" /><path d="M 143.63769802327073 25.89364864446614 a86.0,86.0 0 0,1 29.32050498858742,28.57503671076993" fill="none" id="id14" stroke="none" /><text fill="#e1ed5e" style="font-size:6.75px; font-family:Arial;" text-anchor="middle"><textPath startOffset="20.669276256404974" xlink:href="#id14">February</textPath></text><path d="M 110.65571695917076 81.90426304109057 l 1.567057881528558 -2.6612068744113335 a24.088315468418813,24.088315468418813 0 0,0 0.3545194886190057,0.2128787667434542 l -1.612510126704998 2.6339141071319583" fill="#ff1b02" stroke="none" /><path d="M 112.16784306229584 82.88440491214696 l 1.2743793438093811 -1.7925741419654502 a23.199401001720968,23.199401001720968 0 0,0 0.3226031257357959,0.23353978458907287 l -1.304963479919145 1.7704335860033027" fill="#ff0e01" stroke="none" /><path d="M 112.45986205192187 83.09580414077388 l 1.7860749440584462 -2.423153687240326 a24.01027199730851,24.01027199730851 0 0,0 0.32968048408873496,0.24739838144919998 l -1.8274084170579477 2.3921362785271114" fill="#ff1a02" stroke="none" /><path d="M 112.7482090630111 83.31218511350987 l 1.1644878861950254 -1.524352023592621 a22.918249496005636,22.918249496005636 0 0,0 0.31058599490152133,0.24151354819801846 l -1.1904838257317727 1.5041374237738117" fill="#ff0a01" stroke="none" /><line stroke="#e1ed5e" stroke-width="0.3" x1="172.87174338648825" x2="177.1583165268699" y1="56.24261187166439" y2="53.66864786411523" /><path d="M 173.72905801456457 55.72781907015455 a86.0,86.0 0 0,1 12.242430191666344,42.057860355516425" fill="none" id="id15" stroke="none" /><text fill="#e1ed5e" style="font-size:6.75px; font-family:Arial;" text-anchor="middle"><textPath startOffset="22.145653131862474" xlink:href="#id15">March</textPath></text><line stroke="#e1ed5e" stroke-width="0.3" x1="184.99686870605535" x2="189.99668451229388" y1="99.2704041080226" y2="99.22748670261217" /><path d="M 185.99683186730306 99.26182062694052 a86.0,86.0 0 0,1 -10.086455211305974,41.156179273409016" fill="none" id="id16" stroke="none" /><text fill="#e1ed5e" style="font-size:6.75px; font-family:Arial;" text-anchor="middle"><textPath startOffset="21.40746469413373" xlink:href="#id16">April</textPath></text><path d="M 120.35273937422433 105.17358676015961 l 7.32175500067079 1.8611614896703041 a28.554602463431117,28.554602463431117 0 0,0 -0.12483870845629232,0.4740329099350698 l -7.288726811409767 -1.9865749039781773" fill="#ff5a08" stroke="none" /><path d="M 120.05942366710727 106.21446072829308 l 2.0700423863602953 0.6413044227702508 a23.16710563747892,23.16710563747892 0 0,0 -0.12094915291349347,0.37887149884062765 l -2.058728517669547 -0.676744955302262" fill="#ff0e01" stroke="none" /><path d="M 119.94978838288452 106.5578916946017 l 2.834325605902569 0.9316991235201191 a23.983532285235594,23.983532285235594 0 0,0 -0.13192607719688398,0.3900160055048984 l -2.8179141071333205 -0.980216803499178" fill="#ff1a02" stroke="none" /><path d="M 119.83427380445688 106.89939002012753 l 28.784395183614564 10.012706833794528 a51.476149760526,51.476149760526 0 0,0 -0.29748270389190223,0.8321120677999608 l -28.608272309678718 -10.50535385797541" fill="#89ff24" stroke="none" /><path d="M 119.58574465831526 107.57618678355244 l 2.963265755826234 1.1462548525523053 a24.177238443468184,24.177238443468184 0 0,0 -0.1530549578254579,0.3857984766186333 l -2.9431521230346513 -1.1969543463845027" fill="#ff1c02" stroke="none" /><path d="M 119.4528033332814 107.91128576633889 l 2.8436443393356914 1.1564853970341205 a24.069816216353853,24.069816216353853 0 0,0 -0.1589457826649941,0.38141201621550996 l -2.8233727121342116 -1.2051299226909082" fill="#ff1b02" stroke="none" /><path d="M 119.31412917781788 108.2440532568976 l 2.8423284050197517 1.2132209808085719 a24.090426493262093,24.090426493262093 0 0,0 -0.16561149301847103,0.37895150600006455 l -2.8210830299843153 -1.2618345565844813" fill="#ff1b02" stroke="none" /><path d="M 119.16976305983485 108.57439118712176 l 2.7129694544875433 1.2134767294139386 a23.971990752645706,23.971990752645706 0 0,0 -0.17124623910703773,0.3742039374745169 l -2.6917387505254493 -1.2598696491031445" fill="#ff1902" stroke="none" /><path d="M 118.5362547648365 109.86951160357373 l 2.7209609743866 1.4487584601244925 a24.08261734568486,24.08261734568486 0 0,0 -0.19742545569018813,0.3632406019774456 l -2.695690169081073 -1.4952538955765415" fill="#ff1b02" stroke="none" /><line stroke="#e1ed5e" stroke-width="0.3" x1="174.33088141563837" x2="178.70328620479359" y1="141.23008692659167" y2="143.65538615756765" /><path d="M 175.20536237346943 141.71514677278685 a86.0,86.0 0 0,1 -30.301960400862466,31.631185727798858" fill="none" id="id17" stroke="none" /><text fill="#e1ed5e" style="font-size:6.75px; font-family:Arial;" text-anchor="middle"><textPath startOffset="22.145653131862474" xlink:href="#id17">May</textPath></text><path d="M 118.36410011445183 110.18625677009912 l 26.968836177865832 14.959158814555392 a51.83982096620626,51.83982096620626 0 0,0 -0.4383344079458784,0.7744948984486081 l -26.708068404898576 -15.419910483103124" fill="#85ff25" stroke="none" /><path d="M 118.00360718960297 110.81064883170644 l 2.6175783044350927 1.5717805626798618 a24.053229489748112,24.053229489748112 0 0,0 -0.2155994451560274,0.3521654907350383 l -2.590210894823661 -1.616483169539457" fill="#ff1b02" stroke="none" /><path d="M 117.81537515405839 111.11811171558189 l 2.5831440966068033 1.6120729647940018 a24.044899451156688,24.044899451156688 0 0,0 -0.22153631668729373,0.34829188603657957 l -2.5550900882936194 -1.6561785255092532" fill="#ff1a02" stroke="none" /><path d="M 117.62189284568427 111.42229804090321 l 37.44126488178265 24.268975543842483 a65.61873474108646,65.61873474108646 0 0,0 -0.6208018543808265,0.9399731318119291 l -37.0191385884811 -24.90812855399347" fill="#36ff6f" stroke="none" /><path d="M 117.21940702142032 112.02048342749411 l 6.147702199751819 4.291573590040526 a28.497455982902913,28.497455982902913 0 0,0 -0.28346134691121233,0.39872388326763675 l -6.073125754310647 -4.3964747000176665" fill="#ff5908" stroke="none" /><path d="M 117.01052211995028 112.31430620078461 l 2.4405907948682137 1.7667995224893969 a24.01298257224701,24.01298257224701 0 0,0 -0.24458707028439852,0.3318293351477375 l -2.409901704999987 -1.8084351669060117" fill="#ff1a02" stroke="none" /><path d="M 116.79662413953412 112.60449989151573 l 11.909591283555201 8.937179328091577 a35.88998115793977,35.88998115793977 0 0,0 -0.3740214956764948,0.4896061440918432 l -11.754417810524401 -9.140306385424298" fill="#ffbc11" stroke="none" /><path d="M 116.57777611688842 112.89097897827486 l 2.4323281045752863 1.8913930459227584 a24.081166607386198,24.081166607386198 0 0,0 -0.25656025520884523,0.3241555012940855 l -2.399501418724879 -1.9328684911315268" fill="#ff1b02" stroke="none" /><path d="M 116.35404254752997 113.17365903436017 l 3.574380934831581 2.879268263949862 a25.589813155573584,25.589813155573584 0 0,0 -0.278506342466455,0.3397324533112288 l -3.5244277731264986 -2.9402029989595837" fill="#ff3104" stroke="none" /><path d="M 116.1254893667686 113.45245675266167 l 3.47304513064346 2.897337771113226 a25.52289825658345,25.52289825658345 0 0,0 -0.28355385325312893,0.3340257261461633 l -3.4227967138832165 -2.956530279708946" fill="#ff3004" stroke="none" /><path d="M 115.41159269507618 114.26474011684316 l 2.3757865909287355 2.198992600129292 a24.237272058548704,24.237272058548704 0 0,0 -0.28524287597226006,0.3029180494959393 l -2.3376878812202158 -2.2394521095697284" fill="#ff1d03" stroke="none" /><path d="M 115.16444852881244 114.52719865689866 l 2.2182313014300328 2.12501540834789 a24.071846446741752,24.071846446741752 0 0,0 -0.2884187755557747,0.2959430720275518 l -2.181425724723451 -2.1627811724431796" fill="#ff1b02" stroke="none" /><path d="M 114.91283532996324 114.78537596483092 l 2.207033944178869 2.1881705195432244 a24.10790750398975,24.10790750398975 0 0,0 -0.2938961480848013,0.2913842302890975 l -2.169145875964103 -2.2257347600609836" fill="#ff1b02" stroke="none" /><path d="M 114.65682725009322 115.03919595460226 l 2.067216642507735 2.121146387059387 a23.96186539910173,23.96186539910173 0 0,0 -0.29704442158943545,0.2845618364660195 l -2.030499735052987 -2.1563203538309867" fill="#ff1902" stroke="none" /><path d="M 114.39649973595853 115.28858382429668 l 31.825834369927488 33.79793321063278 a67.42395957533623,67.42395957533623 0 0,0 -0.8494463049411682,0.7862348183565553 l -31.240958293672353 -34.339285775121716" fill="#38ff84" stroke="none" /><path d="M 113.59037401385872 116.0094264158162 l 1.9793250312006385 2.3316399098123535 a24.05847547777764,24.05847547777764 0 0,0 -0.3171430234850246,0.26457198977370444 l -1.9390076735537187 -2.3652740834979284" fill="#ff1b02" stroke="none" /><path d="M 113.31354834802062 116.24036423190432 l 1.8942482441145285 2.310674857363541 a23.9878746136314,23.9878746136314 0 0,0 -0.32069415802818146,0.25832851295917336 l -1.8543033157310944 -2.342851664116118" fill="#ff1a02" stroke="none" /><path d="M 113.03279911837588 116.46651593811092 l 1.7847922378724468 2.255026687989475 a23.875870076327253,23.875870076327253 0 0,0 -0.3235635803287625,0.25160499712046636 l -1.7458187129084535 -2.285332736730735" fill="#ff1802" stroke="none" /><path d="M 112.7482090630111 116.68781488649013 l 1.9240142372410063 2.5185963982352244 a24.169409819242304,24.169409819242304 0 0,0 -0.33186557529377586,0.24903811462582476 l -1.880495673036464 -2.551253540125064" fill="#ff1c02" stroke="none" /><path d="M 112.45986205192187 116.90419585922612 l 19.207109908526764 26.058133423181726 a53.37189195179311,53.37189195179311 0 0,0 -0.7421717124853514,0.5372750851889782 l -18.756957185667442 -26.38400927974378" fill="#75ff27" stroke="none" /><path d="M 111.5731344415666 117.5232005979908 l 1.6798726075676065 2.543541235963757 a24.0482083256733,24.0482083256733 0 0,0 -0.3464251684282274,0.224548608785033 l -1.6359618068823696 -2.5720036864526845" fill="#ff1a02" stroke="none" /><path d="M 111.27062007382361 117.71928675628689 l 1.6342921462326574 2.5693787025880743 a24.045097327927454,24.045097327927454 0 0,0 -0.3501834899820377,0.21854039720772878 l -1.5899445274609048 -2.597054896637351" fill="#ff1a02" stroke="none" /><path d="M 110.96478420261333 117.91015095944535 l 1.5977213822360774 2.6097578044592695 a24.05999173417028,24.05999173417028 0 0,0 -0.35410263440623185,0.2126284577658768 l -1.552685991272409 -2.6368002627610694" fill="#ff1b02" stroke="none" /><line stroke="#e1ed5e" stroke-width="0.3" x1="143.1302829299769" x2="145.66735839644613" y1="173.24464959558577" y2="177.55315839532614" /><path d="M 143.63769802327073 174.10635135553383 a86.0,86.0 0 0,1 -40.68552437913181,11.842963189579606" fill="none" id="id18" stroke="none" /><text fill="#e1ed5e" style="font-size:6.75px; font-family:Arial;" text-anchor="middle"><textPath startOffset="21.407464694133747" xlink:href="#id18">June</textPath></text><path d="M 110.65571695917076 118.09573695890943 l 1.534438630934447 2.6058122556532033 a24.024030327859894,24.024030327859894 0 0,0 -0.3571658676527656,0.20620980983467127 l -1.489480295421283 -2.6317689627640464" fill="#ff1a02" stroke="none" /><path d="M 109.71004243097381 118.62028667847754 l 1.402783626739129 2.690022568226558 a24.033813329955485,24.033813329955485 0 0,0 -0.3674572961269499,0.18762631363931404 l -1.3563991088985967 -2.7137068335387085" fill="#ff1a02" stroke="none" /><path d="M 109.3889696526874 118.78422872680471 l 1.3701754485831508 2.7412687413119166 a24.06462641638322,24.06462641638322 0 0,0 -0.37109917239442675,0.18152320123478846 l -1.3229160269266547 -2.7643856926439283" fill="#ff1b02" stroke="none" /><path d="M 109.06512990194946 118.94263497670748 l 1.1844239935233691 2.4749906079274644 a23.743800048429733,23.743800048429733 0 0,0 -0.36917231863764693,0.17279128572556093 l -1.1417629610142161 -2.494958125223559" fill="#ff1602" stroke="none" /><path d="M 108.73861861582097 119.09545874513695 l 1.2648744098196096 2.7639788589424175 a24.03965234941385,24.03965234941385 0 0,0 -0.37672035181915886,0.16850222167928208 l -1.2172406551448238 -2.7852848315315497" fill="#ff1a02" stroke="none" /><path d="M 108.4095320186766 119.2426549942271 l 1.2071518703733957 2.7621997176112445 a24.014458976021672,24.014458976021672 0 0,0 -0.3791596326289233,0.16184070094387332 l -1.159557162574041 -2.7825150682145217" fill="#ff1a02" stroke="none" /><path d="M 108.07796709384702 119.3841803445677 l 2.282939986878851 5.478224893388343 a26.934876828227367,26.934876828227367 0 0,0 -0.42832295024626177,0.17419521503525884 l -2.1885625754421483 -5.516607365002892" fill="#ff4406" stroke="none" /><path d="M 107.407793817531 119.65005319985036 l 1.0460675722490238 2.7748185156944167 a23.965446873702433,23.965446873702433 0 0,0 -0.38619843845321855,0.1418174160057896 l -0.9982799821416783 -2.7923667807089285" fill="#ff1902" stroke="none" /><path d="M 107.06938296918513 119.77432235084164 l 0.9989238903234419 2.794167906494027 a23.967359639197806,23.967359639197806 0 0,0 -0.3886070293556172,0.13517769727899479 l -0.9508110889228027 -2.8109040363416122" fill="#ff1902" stroke="none" /><path d="M 106.38641147887787 120.00534299687104 l 0.9091104816726854 2.8477756355135853 a23.989365808681157,23.989365808681157 0 0,0 -0.3933791822708827,0.12186987622974878 l -0.8600906665301783 -2.8629620995499785" fill="#ff1a02" stroke="none" /><path d="M 106.0420521117495 120.11202640906438 l 0.9572433356924503 3.186351737997989 a24.327033543860118,24.327033543860118 0 0,0 -0.4009790042697132,0.11671914421228868 l -0.9024043190411304 -3.202314576512796" fill="#ff1e03" stroke="none" /><path d="M 105.69591212413111 120.21278271476187 l 10.251150284087231 36.37771593961044 a58.79450091124275,58.79450091124275 0 0,0 -0.9738009971282021,0.26541379206798105 l -9.625167886024334 -36.54833022582256" fill="#3dff2e" stroke="none" /><path d="M 104.9986988182912 120.39639698878246 l 0.7198828128682234 2.9373675371145977 a24.024294845473527,24.024294845473527 0 0,0 -0.4013977423975914,0.09472877425644398 l -0.6693529167307529 -2.949292455017267" fill="#ff1a02" stroke="none" /><path d="M 104.64783097203109 120.47920084513623 l 0.6807940648267159 2.999704264561576 a24.07598865952594,24.07598865952594 0 0,0 -0.4038318125207861,0.08801326397052045 l -0.6291998356867939 -3.0109489866658157" fill="#ff1b02" stroke="none" /><path d="M 104.29559338865022 120.5559693870025 l 0.6183595221390527 2.9590741621021954 a24.02299328405487,24.02299328405487 0 0,0 -0.4043910739990273,0.08088954043235937 l -0.5674719626090667 -2.969253099197416" fill="#ff1a02" stroke="none" /><path d="M 103.94208987418118 120.62667999033965 l 0.5694889071179854 2.9798066051477035 a24.03373779674716,24.03373779674716 0 0,0 -0.4059015247355886,0.07396877909802736 l -0.5182526488313396 -2.989143558177094" fill="#ff1a02" stroke="none" /><path d="M 103.58742460773223 120.69131181640829 l 0.5172173314005206 2.9831721223610312 a24.027677274666686,24.027677274666686 0 0,0 -0.4070088264752088,0.06697314751147042 l -0.4659310018722395 -2.9916112683681724" fill="#ff1a02" stroke="none" /><path d="M 103.2317021107853 120.74984581791261 l 0.9004032816282513 5.7812349737856055 a26.850931882331974,26.850931882331974 0 0,0 -0.4560501568317137,0.0670236681046029 l -0.8010280191888521 -5.79583971518909" fill="#ff4206" stroke="none" /><path d="M 102.51750503828377 120.84855314841334 l 7.552515114851298 62.54565944524002 a84.0,84.0 0 0,0 -1.4330563935968028,0.16057695797211657 l -6.477722819653695 -62.666092163719114" fill="#4dd2ff" stroke="none" /><path d="M 101.08105385017728 120.97215588758144 l 0.214777992660004 4.1666356792020665 a25.172167598423,25.172167598423 0 0,0 -0.43173172946621174,0.01854041809057732 l -0.1432205025929627 -4.169708665718475" fill="#ff2b04" stroke="none" /><path d="M 100.72087961077811 120.9876233191556 l 0.25149266414590593 7.321934514041684 a28.326252356289267,28.326252356289267 0 0,0 -0.4861144862608987,0.012520584799287044 l -0.1257648638142634 -7.3251728161910155" fill="#ff5708" stroke="none" /><line stroke="#e1ed5e" stroke-width="0.3" x1="101.45913802915013" x2="101.54496967792366" y1="184.9874750549273" y2="189.98673829345242" /><path d="M 101.47630435890484 185.9873277026323 a86.0,86.0 0 0,1 -42.54439059252881,-10.42667462771756" fill="none" id="id19" stroke="none" /><text fill="#e1ed5e" style="font-size:6.75px; font-family:Arial;" text-anchor="middle"><textPath startOffset="22.145653131862474" xlink:href="#id19">July</textPath></text><path d="M 100.0 121.0 l 4.55020346580549e-16 3.715523095290429 a24.71552309529043,24.71552309529043 0 0,0 -0.4242748195138382,-0.003641889049551478 l 0.0637818946649856 -3.7149756044353124" fill="#ff2403" stroke="none" /><path d="M 99.63950707515114 120.99690560180557 l -0.052822452160448376 3.0766430218675187 a24.077096439089672,24.077096439089672 0 0,0 -0.41319357107060095,-0.010642400692276038 l 0.10562933730179323 -3.075282903825195" fill="#ff1b02" stroke="none" /><path d="M 99.27912038922189 120.98762331915562 l -0.10232483899579838 2.9790760411700723 a23.980832841967,23.980832841967 0 0,0 -0.4112989632863758,-0.017662947194036528 l 0.1534495628830129 -2.976880525550207" fill="#ff1902" stroke="none" /><path d="M 98.55909050195518 120.95050786540614 l -0.31047033507172517 4.514170533070584 a25.52483451969266,25.52483451969266 0 0,0 -0.4368769966480422,-0.03381704254378986 l 0.3879163264950035 -4.508175723531741" fill="#ff3004" stroke="none" /><path d="M 98.19965949673042 120.92268563240118 l -2.6656792573803725 30.979233649241884 a52.093709386265715,52.093709386265715 0 0,0 -0.8903073830297569,-0.08431303482201456 l 3.1970862037951444 -30.92890885891469" fill="#82ff25" stroke="none" /><path d="M 97.48249496171623 120.84855314841334 l -0.3637834205113166 3.0126485793300266 a24.034532886554064,24.034532886554064 0 0,0 -0.40918469273515,-0.05297715063750723 l 0.4154459351372607 -3.0059598324921226" fill="#ff1a02" stroke="none" /><path d="M 97.12497278360702 120.80226474461374 l -0.41795429565259 3.0241090796426526 a24.052854650786962,24.052854650786962 0 0,0 -0.40852616154300686,-0.06003927737582081 l 0.4698055628032818 -3.0164887289679494" fill="#ff1b02" stroke="none" /><path d="M 96.41257539226777 120.69131181640829 l -0.5143263482647178 2.966497699882597 a24.01075409090946,24.01075409090946 0 0,0 -0.4055133570139261,-0.07389804200859065 l 0.5651744388297011 -2.9572314839426403" fill="#ff1a02" stroke="none" /><path d="M 96.05791012581884 120.62667999033965 l -1.1120812054902736 5.818878787912896 a26.924194034299294,26.924194034299294 0 0,0 -0.4532284388272006,-0.09065838116816613 l 1.2118061298484322 -5.798931010081867" fill="#ff4306" stroke="none" /><path d="M 95.70440661134978 120.55596938700252 l -6.272860423525573 30.017907927605116 a51.66632638975871,51.66632638975871 0 0,0 -0.8666105690331212,-0.18887374002519727 l 6.787233409177831 -29.905802729446197" fill="#87ff25" stroke="none" /><path d="M 94.6519064749342 120.30758222061772 l -0.7735998082004424 2.9374844768989474 a24.037642460078217,24.037642460078217 0 0,0 -0.3981304345379569,-0.10851222034072136 l 0.8239116436730943 -2.9237717624140815" fill="#ff1a02" stroke="none" /><path d="M 94.30408787586889 120.21278271476187 l -0.8170862486891831 2.8995508434908865 a24.01247822096454,24.01247822096454 0 0,0 -0.395794234004362,-0.11520993315169911 l 0.8667404950751519 -2.8850972160366717" fill="#ff1a02" stroke="none" /><path d="M 93.95794788825049 120.11202640906438 l -1.1498304937439308 3.8274117515728268 a24.996397237565503,24.996397237565503 0 0,0 -0.40989254920082385,-0.1269857595163781 l 1.2153636758163884 -3.8071094042497995" fill="#ff2803" stroke="none" /><path d="M 93.61358852112213 120.00534299687104 l -1.251511856307853 3.920343064786126 a25.115260826739394,25.115260826739394 0 0,0 -0.40959075100974174,-0.134640615362963 l 1.3186253449653385 -3.898281528021142" fill="#ff2a04" stroke="none" /><path d="M 93.27111125876986 119.89276391827306 l -9.506008410777705 28.102824759463743 a50.667034825996765,50.667034825996765 0 0,0 -0.8215158526593219,-0.28576585818537487 l 9.987030035482048 -27.93550046870978" fill="#92ff23" stroke="none" /><path d="M 92.59220618246901 119.65005319985036 l -1.0298409510973578 2.7317754752510597 a23.91944680234805,23.91944680234805 0 0,0 -0.3829705467028522,-0.1481412346090274 l 1.0765837602937383 -2.7136943525039916" fill="#ff1902" stroke="none" /><path d="M 92.25597844496254 119.51999308798841 l -1.1346245489690767 2.8599950550152107 a24.076840031889006,24.076840031889006 0 0,0 -0.3828739674895589,-0.15571150941106618 l 1.1835529776490765 -2.8400962890248533" fill="#ff1b02" stroke="none" /><path d="M 91.59046798132341 119.24265499422711 l -1.4530157142187872 3.3247843075936894 a24.628421882552797,24.628421882552797 0 0,0 -0.38594683573167204,-0.1726291105772105 l 1.5098759528060943 -3.299351446106624" fill="#ff2303" stroke="none" /><path d="M 91.26138138417905 119.09545874513695 l -1.2494305443844593 2.7302312257926658 a24.002538797673424,24.002538797673424 0 0,0 -0.37319522919894343,-0.17467421099690927 l 1.2961144874548927 -2.70838078322523" fill="#ff1a02" stroke="none" /><path d="M 90.93487009805054 118.94263497670748 l -2.2136295309830087 4.625634340888355 a26.12802581468207,26.12802581468207 0 0,0 -0.40291873176670745,-0.19708774222222786 l 2.2927085120117856 -4.586952848568905" fill="#ff3805" stroke="none" /><line stroke="#e1ed5e" stroke-width="0.3" x1="58.13341422392154" x2="55.67067388415222" y1="173.97424548756322" y2="178.32567169271397" /><path d="M 57.64086615596768 174.84453072859336 a86.0,86.0 0 0,1 -31.369924170532247,-30.572349798747897" fill="none" id="id20" stroke="none" /><text fill="#e1ed5e" style="font-size:6.75px; font-family:Arial;" text-anchor="middle"><textPath startOffset="22.145653131862474" xlink:href="#id20">August</textPath></text><line stroke="#e1ed5e" stroke-width="0.3" x1="26.387840678322732" x2="22.057713659400548" y1="142.50000000000003" y2="145.00000000000006" /><path d="M 25.521815274538298 143.00000000000003 a86.0,86.0 0 0,1 -11.493303480769221,-40.785679425670985" fill="none" id="id21" stroke="none" /><text fill="#e1ed5e" style="font-size:6.75px; font-family:Arial;" text-anchor="middle"><textPath startOffset="21.40746469413373" xlink:href="#id21">September</textPath></text><line stroke="#e1ed5e" stroke-width="0.3" x1="15.003131293944662" x2="10.003315487706104" y1="100.72959589197737" y2="100.7725132973878" /><path d="M 14.003168132696942 100.73817937305945 a86.0,86.0 0 0,1 10.791469493833604,-42.45332614584628" fill="none" id="id22" stroke="none" /><text fill="#e1ed5e" style="font-size:6.75px; font-family:Arial;" text-anchor="middle"><textPath startOffset="22.145653131862435" xlink:href="#id22">October</textPath></text><line stroke="#e1ed5e" stroke-width="0.3" x1="26.387840678322718" x2="22.05771365940052" y1="57.49999999999999" y2="54.99999999999999" /><path d="M 25.521815274538284 56.99999999999999 a86.0,86.0 0 0,1 29.574782752854787,-30.34633250058573" fill="none" id="id23" stroke="none" /><text fill="#e1ed5e" style="font-size:6.75px; font-family:Arial;" text-anchor="middle"><textPath startOffset="21.40746469413373" xlink:href="#id23">November</textPath></text><line stroke="#e1ed5e" stroke-width="0.3" x1="56.869717070023135" x2="54.33264160355391" y1="26.7553504044142" y2="22.446841604673864" /><path d="M 56.362301976729285 25.89364864446614 a86.0,86.0 0 0,1 42.16139366436587,-11.88097634709845" fill="none" id="id24" stroke="none" /><text fill="#e1ed5e" style="font-size:6.75px; font-family:Arial;" text-anchor="middle"><textPath startOffset="22.145653131862474" xlink:href="#id24">December</textPath></text></svg>