<?xml version="1.0" encoding="utf-8" ?>
<svg baseProfile="full" height="200mm" version="1.1" viewBox="0,0,200,200" width="200mm" xmlns="http://www.w3.org/2000/svg" xmlns:ev="http://www.w3.org/2001/xml-events" xmlns:xlink="http://www.w3.org/1999/xlink"><defs /><rect fill="#1a1a1a" height="200" width="200" x="0" y="0" /><text alignment-baseline="middle" fill="#e1ed5e" style="dominant-baseline: central; font-size:9.0px; font-family:Arial;" text-anchor="middle" x="100.0" y="100.0">2023</text><line stroke="#e1ed5e" stroke-width="0.3" x1="100.0" x2="100.0" y1="15.0" y2="10.0" /><path d="M 100.0 14.0 a86.0,86.0 0 0,1 42.46469731375804,11.215312516191453" fill="none" id="id1" stroke="none" /><text fill="#e1ed5e" style="font-size:6.75px; font-family:Arial;" text-anchor="middle"><textPath startOffset="22.20632615414155" xlink:href="#id1">January</textPath></text><path d="M 101.44485096284872 79.0497635885617 l 0.09735020135528688 -1.411571010115268 a22.41492394788616,22.41492394788616 0 0,0 0.3846932616911988,0.029859600976553477 l -0.12163365240882684 1.4096861469502502" fill="#ff0e01" stroke="none" /><path d="M 102.16513564639614 79.11191278185805 l 0.08267299531888495 -0.797585472152889 a21.801858721686273,21.801858721686273 0 0,0 0.3729501703907908,0.04190529713664438 l -0.09638986921940101 0.7960442215456438" fill="#ff0500" stroke="none" /><path d="M 102.52436894288641 79.15227682838746 l 1.396463721078644 -11.532818591469088 a32.61705709670155,32.61705709670155 0 0,0 0.5567968842183877,0.0722882157491231 l -1.5947753338048776 11.507072052555829" fill="#ff9a0e" stroke="none" /><path d="M 102.88285421437855 79.19881850522331 l 0.17313677738641287 -1.2492652288391433 a22.261205754692813,22.261205754692813 0 0,0 0.3791094148065841,0.055870872976185294 l -0.19461517262165276 1.246099871701989" fill="#ff0c01" stroke="none" /><path d="M 103.2404852339499 79.25152402106235 l 0.2745610905210759 -1.7579849251414723 a22.77929615001348,22.77929615001348 0 0,0 0.38689093530585583,0.06384031933491968 l -0.3047812319658069 1.7529983428669278" fill="#ff1302" stroke="none" /><path d="M 107.4271985657038 80.35727306442388 l 5.99383177164727 -15.851898901950403 a37.94723334661043,37.94723334661043 0 0,0 0.6089931656901781,0.23627988701129793 l -6.265808102337115 15.746376311048557" fill="#ffde14" stroke="none" /><path d="M 107.76421540070413 80.48803036053334 l 0.8961409316489248 -2.252059448200192 a23.4238069905841,23.4238069905841 0 0,0 0.3733488588284185,0.15229837374767777 l -0.9347736600657308 2.2363001882689346" fill="#ff1d02" stroke="none" /><path d="M 108.09893153111575 80.62456947434976 l 0.6832034749432638 -1.63445775690147 a22.771501946730496,22.771501946730496 0 0,0 0.36034952173371426,0.15428285933224012 l -0.7112367544672934 1.622455369606439" fill="#ff1302" stroke="none" /><path d="M 108.43124777332544 80.76684994638697 l 0.7956215685770744 -1.8149518820626882 a22.98168211744163,22.98168211744163 0 0,0 0.3609414147640228,0.1619438916149122 l -0.8267451018078775 1.8009876599312447" fill="#ff1602" stroke="none" /><path d="M 108.76106565485865 80.91482961587045 l 0.7694298249834843 -1.6761316359154375 a22.844299193864888,22.844299193864888 0 0,0 0.35595964018207715,0.16712782396316186 l -0.7981676764651595 1.6626388293122727" fill="#ff1402" stroke="none" /><path d="M 109.08828744355905 81.06846463323043 l 0.5335281368257209 -1.1113762470883466 a22.232805514011396,22.232805514011396 0 0,0 0.34358020020312396,0.16859331208724615 l -0.5525796040392766 1.1020277748662684" fill="#ff0c01" stroke="none" /><path d="M 109.41281617654863 81.2277094730956 l 1.2948978135712412 -2.5824575241971486 a23.888918000199045,23.888918000199045 0 0,0 0.3660004204483924,0.18747963088712163 l -1.3391587216083893 2.5597853679975264" fill="#ff2303" stroke="none" /><path d="M 109.73455568895987 81.39251694778311 l 5.399210838581812 -10.32052487903447 a32.647519541010816,32.647519541010816 0 0,0 0.4957058725816693,0.26478890975161096 l -5.576061757691793 10.226057242781106" fill="#ff9a0e" stroke="none" /><line stroke="#e1ed5e" stroke-width="0.3" x1="143.23703022742887" x2="145.7803849466894" y1="26.81831364943548" y2="22.513508569990506" /><path d="M 143.74570117128098 25.957352633546492 a86.0,86.0 0 0,1 28.547481713284135,27.462654790039103" fill="none" id="id2" stroke="none" /><text fill="#e1ed5e" style="font-size:6.75px; font-family:Arial;" text-anchor="middle"><textPath startOffset="19.985693538727396" xlink:href="#id2">February</textPath></text><path d="M 110.68208982089419 81.91981866633111 l 0.7767781537223126 -1.3147511498977726 a22.527073962274834,22.527073962274834 0 0,0 0.3321541255162494,0.20011914412566342 l -0.7992943454561995 1.3011853963134947" fill="#ff1001" stroke="none" /><path d="M 110.99172775467656 82.1063720568725 l 0.45122111311739205 -0.7345508275322131 a21.862070421225063,21.862070421225063 0 0,0 0.3189580793596289,0.19973152003372918 l -0.4637983448492842 0.7266749661755397" fill="#ff0601" stroke="none" /><path d="M 111.2981086023043 82.29822771554956 l 0.6207627354935006 -0.9726053247653613 a22.153822989690926,22.153822989690926 0 0,0 0.31968280337212535,0.20793058786892682 l -0.6374125646499061 0.9617758127369065" fill="#ff0a01" stroke="none" /><path d="M 111.60114157652 82.49532879139004 l 9.73187219355867 -14.684177575872592 a38.61631083602693,38.61631083602693 0 0,0 0.550917402181498,0.3719818891952396 l -9.98319429014671 14.514483774378682" fill="#ffe615" stroke="none" /><path d="M 111.90073688211348 82.69761687909136 l 9.613679117467658 -13.977248714901743 a37.96426561369092,37.96426561369092 0 0,0 0.5352398503232885,0.37496972007692453 l -9.852850107374598 13.809694152060882" fill="#ffde14" stroke="none" /><path d="M 112.48926042617603 83.11751280151076 l 0.669476095349202 -0.9049712491973437 a22.12568699207098,22.12568699207098 0 0,0 0.3042322485570767,0.22914142221722414 l -0.6849544976646618 0.8933132374742722" fill="#ff0a01" stroke="none" /><path d="M 113.06298171725822 83.55741782278167 l 0.6929798061035036 -0.8722646678710376 a22.11403171520537,22.11403171520537 0 0,0 0.29600853138958505,0.23935164637018294 l -0.7078917360575798 0.8602069242367251" fill="#ff0a01" stroke="none" /><path d="M 113.34407831869373 83.78471172551755 l 1.0029388977864317 -1.218738601565004 a22.578356807454412,22.578356807454412 0 0,0 0.2979724484301807,0.2495433563314071 l -1.02376888317573 1.2012940878397773" fill="#ff1101" stroke="none" /><path d="M 113.6212207817346 84.01681056812373 l 1.0155294291870671 -1.1916258829096715 a22.56565394208467,22.56565394208467 0 0,0 0.2934676204368769,0.25449222856490683 l -1.035890848270708 1.1739686609250934" fill="#ff1001" stroke="none" /><path d="M 113.89432698308785 84.25364557470407 l 2.7693692380421386 -3.1385089475583974 a25.18564742787997,25.18564742787997 0 0,0 0.3226029727800489,0.28963613422000034 l -2.8229831984181777 3.0903738045691" fill="#ff3505" stroke="none" /><path d="M 114.16331599549186 84.49514656593476 l 1.0432721415827395 -1.14209000577495 a22.546863388503866,22.546863388503866 0 0,0 0.28429674621097284,0.26422284182439965 l -1.0627767715885592 1.12396257787591" fill="#ff1001" stroke="none" /><path d="M 114.42810811169701 84.74124197986012 l 1.0632199382998693 -1.1244312584234986 a22.547508414231803,22.547508414231803 0 0,0 0.279714464604637,0.2690850933321809 l -1.0824176465169244 1.1059630783290157" fill="#ff1001" stroke="none" /><path d="M 114.68862486808459 84.99185889309783 l 0.9018754873052724 -0.9214936521214823 a22.28939130813819,22.28939130813819 0 0,0 0.2718925756765074,0.27072498254937644 l -0.9176038631491024 0.9058328189219872" fill="#ff0c01" stroke="none" /><path d="M 115.19652480421416 85.50635884689758 l 0.9148814522945287 -0.8725655133671716 a22.26427000552503,22.26427000552503 0 0,0 0.26211690942088806,0.2796080433972167 l -0.9297656836858796 0.8566880530919" fill="#ff0c01" stroke="none" /><path d="M 115.4437574822437 85.77008943001954 l 14.543446359746953 -13.40036201141128 a40.77578150303324,40.77578150303324 0 0,0 0.4711667947886685,0.5202741428877922 l -14.771956795151658 13.148035081253939" fill="#feff18" stroke="none" /><path d="M 115.68641384162765 86.03803664274999 l 9.589727440733279 -8.535502408984012 a33.83813357779567,33.83813357779567 0 0,0 0.3835119577549994,0.43842046445928057 l -9.735231262066128 8.369166388321784" fill="#ffaa0f" stroke="none" /><path d="M 116.15771136456269 86.58626213691792 l 1.196606774201926 -0.9933937568371267 a22.555216682070032,22.555216682070032 0 0,0 0.2454238582569686,0.3008606309793935 l -1.2135291245353035 0.9726489562496324" fill="#ff1001" stroke="none" /><path d="M 116.38621287248628 86.86637796730983 l 1.1793292688420707 -0.9452376207724976 a22.511387337538338,22.511387337538338 0 0,0 0.23974190086710273,0.30444786793000705 l -1.1954252503031375 0.9247973588894521" fill="#ff1001" stroke="none" /><path d="M 116.60985879189232 87.15038557335679 l 1.2222944235044853 -0.9455837195639055 a22.545358284811154,22.545358284811154 0 0,0 0.23481963300741965,0.30899511178977707 l -1.2383899967360184 0.9244038318930949" fill="#ff1001" stroke="none" /><path d="M 116.82858285166822 87.43820079747576 l 0.9647903672664448 -0.7201737052344428 a22.20393962410132,22.20393962410132 0 0,0 0.22599104986478993,0.3082515380417234 l -0.9770440296448613 0.7034597235212258" fill="#ff0b01" stroke="none" /><path d="M 117.04232023915458 87.72973835380427 l 51.126960717463746 -36.81078493858721 a84.0,84.0 0 0,0 0.8347495207844684,1.1806939986728273 l -51.75302285805209 35.92526443958259" fill="#4dd2ff" stroke="none" /><path d="M 117.2510076193507 88.02491185347247 l 0.9801186700389372 -0.6803664879614357 a22.19311825285672,22.19311825285672 0 0,0 0.21514170984772826,0.31569391210890396 l -0.9916848455553987 0.6633945525821253" fill="#ff0b01" stroke="none" /><path d="M 117.65298651832404 88.62581576622439 l 1.0569525695118445 -0.6810163956966302 a22.25735121004647,22.25735121004647 0 0,0 0.2047383825925078,0.323846953232417 l -1.068518548350308 0.6627217947500069" fill="#ff0c01" stroke="none" /><line stroke="#e1ed5e" stroke-width="0.3" x1="172.23445277983987" x2="176.4835382374775" y1="55.19839476539836" y2="52.563006222186495" /><path d="M 173.08426987136738 54.67131705675599 a86.0,86.0 0 0,1 12.851231095245387,41.99856678651699" fill="none" id="id3" stroke="none" /><text fill="#e1ed5e" style="font-size:6.75px; font-family:Arial;" text-anchor="middle"><textPath startOffset="22.20632615414155" xlink:href="#id3">March</textPath></text><path d="M 117.84615892207809 88.93136811851018 l 1.4328027198580309 -0.8886599034644938 a22.6860130658029,22.6860130658029 0 0,0 0.20296873594936532,0.3336272348650074 l -1.44788725409362 0.8638648953924049" fill="#ff1202" stroke="none" /><path d="M 118.03404312379186 89.2402003453031 l 1.3851585867556921 -0.8264385740439885 a22.612967770022355,22.612967770022355 0 0,0 0.19656088085389892,0.3359862615249905 l -1.3991791420799184 0.8024729001651026" fill="#ff1101" stroke="none" /><path d="M 118.21658344932153 89.55222093294921 l 1.2017876030607129 -0.6892626928221551 a22.385415642537236,22.385415642537236 0 0,0 0.1888288251223006,0.3359054098060521 l -1.2134740694754464 0.6684737730813092" fill="#ff0e01" stroke="none" /><path d="M 118.3937258080291 89.86733742301442 l 16.15933216577906 -8.90178868675946 a39.4490069615603,39.4490069615603 0 0,0 0.3225273804368715,0.5975942525296454 l -16.310167645434394 8.622313450897355" fill="#fff016" stroke="none" /><path d="M 118.56541770881063 90.18545643968196 l 27.90980525890525 -14.754421568630985 a52.56976695217908,52.56976695217908 0 0,0 0.4160285413534868,0.8036347226698162 l -28.15964323341885 14.271814123700823" fill="#79ff26" stroke="none" /><path d="M 119.04729006885535 91.15688171328212 l 0.9033326282349764 -0.41939180087331446 a21.995941423916925,21.995941423916925 0 0,0 0.15648298499729177,0.34478951483583953 l -0.9104179301956151 0.40378027719541215" fill="#ff0801" stroke="none" /><path d="M 119.196687751892 91.48605970444005 l 1.6991377388056252 -0.7535861107444449 a22.858752560654708,22.858752560654708 0 0,0 0.156429290684452,0.3610603703834453 l -1.7118577393327579 0.7242265957743969" fill="#ff1502" stroke="none" /><path d="M 119.34039704204932 91.81776055985345 l 1.4058136599022408 -0.5947501464701079 a22.526446783577452,22.526446783577452 0 0,0 0.148007672745041,0.3584123194154107 l -1.4158430195334792 0.5704632566013941" fill="#ff1001" stroke="none" /><path d="M 119.47837535516314 92.15188598940014 l 14.959388808627146 -6.027350164390241 a37.12799626524802,37.12799626524802 0 0,0 0.23374098029685358,0.5948452995080142 l -15.0609233388057 5.768955859986442" fill="#ffd413" stroke="none" /><path d="M 119.61058180528143 92.48833698450437 l 29.453543886623034 -11.281924141018555 a52.54034019798972,52.54034019798972 0 0,0 0.3162313295042624,0.847342742746037 l -29.64337980462892 10.773258261243184" fill="#79ff26" stroke="none" /><path d="M 119.97218684219823 93.5106431181261 l 1.6949111000672765 -0.5507099997756406 a22.782134995162867,22.782134995162867 0 0,0 0.11797296422744792,0.37400653562063096 l -1.7041395480629307 0.5214532977285905" fill="#ff1302" stroke="none" /><path d="M 120.08093135843002 93.85539295169968 l 1.6979615618085333 -0.5195628825279461 a22.77567425342601,22.77567425342601 0 0,0 0.11148595250271555,0.3758752092033868 l -1.7066534114229512 0.4902582865780295" fill="#ff1302" stroke="none" /><path d="M 120.28053869075195 94.5502522615342 l 16.14215100779148 -4.337688080682006 a37.714801136825834,37.714801136825834 0 0,0 0.16307820409551732,0.6284068441661733 l -16.214425543757297 4.059184810966983" fill="#ffdb14" stroke="none" /><path d="M 120.37134235888165 94.90015583598534 l 30.571307730330464 -7.653344711810186 a52.514735309381166,52.514735309381166 0 0,0 0.21197747891526245,0.8787835020577994 l -30.698518009506547 7.12597597809298" fill="#79ff26" stroke="none" /><path d="M 120.6074358757038 95.95851677861258 l 1.8074244901949408 -0.35446795977464657 a22.841855266372264,22.841855266372264 0 0,0 0.07234806988564378,0.3864862822652037 l -1.8132582839904439 0.3233036000468801" fill="#ff1402" stroke="none" /><path d="M 120.67395015179393 96.31383870115 l 1.9011804474119458 -0.338980104717536 a22.93116405440237,22.93116405440237 0 0,0 0.06594144335332068,0.3891901314023817 l -1.9067337522854895 0.30620418499931645" fill="#ff1602" stroke="none" /><path d="M 120.73433829027371 96.67025291283417 l 1.681206132589124 -0.26998649026286664 a22.702746829443456,22.702746829443456 0 0,0 0.05864239134461559,0.386380088951473 l -1.6856044173730396 0.24100728891931142" fill="#ff1202" stroke="none" /><path d="M 120.78858239683441 97.02765380044208 l 21.33906294598215 -3.0510537678257217 a42.556078875963316,42.556078875963316 0 0,0 0.09744126365555321,0.7260505949955739 l -21.38842020869554 2.6832848307654835" fill="#e9ff1a" stroke="none" /><path d="M 120.83666639777658 97.38593545837742 l 22.961924761205044 -2.8806888865906375 a44.14191775114085,44.14191775114085 0 0,0 0.0880939138426155,0.7547348557569742 l -23.008109028051248 2.4850102925088104" fill="#d6ff1c" stroke="none" /><path d="M 120.91429891909075 98.10471618934814 l 1.900760037748637 -0.17224960499109263 a22.908548832888954,22.908548832888954 0 0,0 0.0322088918684456,0.393030062926481 l -1.9034434134365776 0.1395056248568428" fill="#ff1502" stroke="none" /><path d="M 120.94382443527127 98.46500227214037 l 1.8375193129776364 -0.13467396936200177 a22.842447910685543,22.842447910685543 0 0,0 0.025365351680457646,0.3923907635262858 l -1.8395652556625095 0.10302414158268067" fill="#ff1402" stroke="none" /><line stroke="#e1ed5e" stroke-width="0.3" x1="184.98032266829074" x2="189.97916517819016" y1="98.17113171792111" y2="98.06355123074" /><path d="M 185.9800911702706 98.14961562048488 a86.0,86.0 0 0,1 -9.607161424134198,41.387399972396054" fill="none" id="id4" stroke="none" /><text fill="#e1ed5e" style="font-size:6.75px; font-family:Arial;" text-anchor="middle"><textPath startOffset="21.466115282336823" xlink:href="#id4">April</textPath></text><path d="M 120.99513854157772 99.54816195383933 l 5.045330412618844 -0.10858095703241703 a26.046498667068754,26.046498667068754 0 0,0 0.005788515423221012,0.4483268986962782 l -5.04645193515978 0.021717800275676137" fill="#ff4206" stroke="none" /><path d="M 120.99980553446 99.90962569577887 l 36.85322869007149 -0.158600749692754 a57.85356996385169,57.85356996385169 0 0,0 -0.004285855028794816,0.9958817711434467 l -36.85049853775319 -0.4757904996543774" fill="#43ff2d" stroke="none" /><path d="M 120.92983693683757 101.71520430193887 l 31.60306522862527 2.5898774843863213 a52.70900814009916,52.70900814009916 0 0,0 -0.0818882224002694,0.9036297105514567 l -31.553802409947924 -3.1334885834863484" fill="#77ff26" stroke="none" /><path d="M 120.8583938346157 102.4346265915055 l 19.85373525538089 2.3173611629311384 a40.98852086449159,40.98852086449159 0 0,0 -0.08782959890981894,0.7000883196244673 l -19.81090414722422 -2.6587672368430004" fill="#fbff18" stroke="none" /><path d="M 120.5718875245553 104.21870165774334 l 9.098804463842214 1.8659027485579935 a30.288155669362528,30.288155669362528 0 0,0 -0.1091324959040964,0.5098306887853079 l -9.065337929213674 -2.0222472567594703" fill="#ff7b0b" stroke="none" /><path d="M 120.49622156327973 104.57218783832717 l 13.947327984006575 3.1112955716619806 a35.29014058810117,35.29014058810117 0 0,0 -0.1373617199953627,0.591750694649808 l -13.89170569808066 -3.3509149236603535" fill="#ffbc11" stroke="none" /><path d="M 120.41448212921028 104.9243191809786 l 20.575763100042792 4.963222885376814 a42.16590675022005,42.16590675022005 0 0,0 -0.17627093024565904,0.7041147439936949 l -20.487280855502075 -5.316665468767904" fill="#edff1a" stroke="none" /><path d="M 120.13307415673323 105.97154293290107 l 1.8439719907797736 0.5469287911168742 a22.92337302812868,22.92337302812868 0 0,0 -0.11546091191576364,0.37733294066436945 l -1.8342843063578773 -0.5785887043333008" fill="#ff1502" stroke="none" /><path d="M 120.02730092923936 106.31721596034902 l 1.7823468481096674 0.56220606039417 a22.86891303738574,22.86891303738574 0 0,0 -0.12164927605293159,0.374397974217398 l -1.7724053210404886 -0.5928029345893633" fill="#ff1502" stroke="none" /><path d="M 119.9155931802556 106.66101706037122 l 1.7720014713907806 0.592667862066934 a22.868487198066415,22.868487198066415 0 0,0 -0.12807351318809312,0.3722415792072372 l -1.7615371272594567 -0.6230821443634716" fill="#ff1502" stroke="none" /><path d="M 119.79798401119884 107.00284435728193 l 10.86552942409176 3.8433009832385556 a32.525219829294635,32.525219829294635 0 0,0 -0.1912416930661718,0.5262150042791771 l -10.79776347002036 -4.029763784523864" fill="#ff990e" stroke="none" /><path d="M 119.67450827220406 107.3425965602758 l 27.538775475341815 10.277569090005 a50.394090921154785,50.394090921154785 0 0,0 -0.31029734432334477,0.8100884507547467 l -27.357783851424966 -10.75008110759289" fill="#90ff24" stroke="none" /><path d="M 118.81262510543309 109.33194174019688 l 1.841180626425983 0.9133116852482411 a23.055257729224575,23.055257729224575 0 0,0 -0.17941528031096582,0.35400336918558895 l -1.825186676328748 -0.9448692661365244" fill="#ff1702" stroke="none" /><line stroke="#e1ed5e" stroke-width="0.3" x1="174.80103733775053" x2="179.2010983576182" y1="140.37084112569926" y2="142.7455964860345" /><path d="M 175.68104954172406 140.8457921977663 a86.0,86.0 0 0,1 -30.038265399797805,32.042727171017184" fill="none" id="id5" stroke="none" /><text fill="#e1ed5e" style="font-size:6.75px; font-family:Arial;" text-anchor="middle"><textPath startOffset="22.206326154141568" xlink:href="#id5">May</textPath></text><path d="M 118.48025628344425 109.97397251340804 l 14.688165616849227 7.92734461513299 a37.69086582041417,37.69086582041417 0 0,0 -0.31305600701323877,0.568287585993125 l -14.549533200384479 -8.17900271952392" fill="#ffdb14" stroke="none" /><path d="M 117.94076556474637 110.91462005526583 l 6.365350172731653 3.8724868458571193 a28.45076084657341,28.45076084657341 0 0,0 -0.2581369509344037,0.4161989575007899 l -6.2977485821292865 -3.981482134723183" fill="#ff6309" stroke="none" /><path d="M 117.75023020441432 111.22182372390056 l 3.91669767990194 2.4761645588539594 a25.633779411913526,25.633779411913526 0 0,0 -0.2389985401008649,0.3709310416980324 l -3.873494276424025 -2.543217200473445" fill="#ff3c05" stroke="none" /><path d="M 117.55443506779139 111.5257021239791 l 7.286117063883372 4.783840356836195 a29.716227993134822,29.716227993134822 0 0,0 -0.2844223593108143,0.4251728362371939 l -7.202691599161836 -4.908550107279196" fill="#ff740a" stroke="none" /><path d="M 117.35343817320211 111.8261652097733 l 12.958973139194109 8.831388671426888 a36.68210479139078,36.68210479139078 0 0,0 -0.36007694309908345,0.5187176923416613 l -12.80503528893289 -9.05314762595557" fill="#ffce13" stroke="none" /><path d="M 116.0416608686014 113.55231037782055 l 8.894698917641458 7.514416458278565 a32.643973700757826,32.643973700757826 0 0,0 -0.366323662855147,0.42611717932126314 l -8.764032745215532 -7.666410736761356" fill="#ff9a0e" stroke="none" /><path d="M 115.80600337817218 113.82643327865902 l 7.972959989200455 6.974413245813571 a31.59294723449386,31.59294723449386 0 0,0 -0.3615754895875049,0.40623389558700956 l -7.851725649964612 -7.110621311141446" fill="#ff8d0d" stroke="none" /><path d="M 115.32070863581623 114.36230785411682 l 2.8636069446537853 2.6844714229573476 a24.92512822136348,24.92512822136348 0 0,0 -0.2961264855842605,0.3104874362370094 l -2.81697390769056 -2.7333659757768642" fill="#ff3204" stroke="none" /><path d="M 114.0293411484842 115.62618273729858 l 11.904011624470515 13.258944877179824 a38.818673127133295,38.818673127133295 0 0,0 -0.5010522952918582,0.4421203942436296 l -11.67401697627207 -13.461888413195743" fill="#ffe915" stroke="none" /><line stroke="#e1ed5e" stroke-width="0.3" x1="143.8653032363475" x2="146.44561519142675" y1="172.8068346515853" y2="177.08958963109032" /><path d="M 144.38136562736335 173.6633856474863 a86.0,86.0 0 0,1 -40.68145358897372,12.25698825130547" fill="none" id="id6" stroke="none" /><text fill="#e1ed5e" style="font-size:6.75px; font-family:Arial;" text-anchor="middle"><textPath startOffset="21.466115282336833" xlink:href="#id6">June</textPath></text><path d="M 107.59598834532513 119.57807347666477 l 6.889099848800385 17.7561229554679 a40.04572390686255,40.04572390686255 0 0,0 -0.6447929421010676,0.24380551796376682 l -6.582436685939043 -17.8720767235383" fill="#fff817" stroke="none" /><path d="M 102.70371172650421 120.8252237178851 l 1.994408600491015 15.361846783792043 a36.49077151966339,36.49077151966339 0 0,0 -0.6235970100049952,0.07550891346623788 l -1.7296841674346395 -15.393901225983631" fill="#ffcc13" stroke="none" /><line stroke="#e1ed5e" stroke-width="0.3" x1="102.19456741930631" x2="102.32365962044197" y1="184.97166512339345" y2="189.96999836594603" /><path d="M 102.22038585953345 185.97133177190398 a86.0,86.0 0 0,1 -42.740103519485714,-10.115201625700543" fill="none" id="id7" stroke="none" /><text fill="#e1ed5e" style="font-size:6.75px; font-family:Arial;" text-anchor="middle"><textPath startOffset="22.20632615414155" xlink:href="#id7">July</textPath></text><path d="M 97.65516085044442 120.86867818915974 l -1.6398470577207687 14.594365900748953 a35.68620490180017,35.68620490180017 0 0,0 -0.6098476340297698,-0.07384405551459998 l 1.8908221148019277 -14.563976316509004" fill="#ffc212" stroke="none" /><path d="M 90.42595943632237 118.69057910512821 l -2.357655761442412 4.602649343170722 a26.17135588271127,26.17135588271127 0 0,0 -0.3991868277356732,-0.20883568153669202 l 2.436533491704581 -4.5613842426893125" fill="#ff4306" stroke="none" /><line stroke="#e1ed5e" stroke-width="0.3" x1="58.666819895761336" x2="56.23545636021788" y1="174.27360380694188" y2="178.64263932499728" /><path d="M 58.180547188652646 175.14741091055294 a86.0,86.0 0 0,1 -31.652253787137756,-30.449443065178592" fill="none" id="id8" stroke="none" /><text fill="#e1ed5e" style="font-size:6.75px; font-family:Arial;" text-anchor="middle"><textPath startOffset="22.20632615414155" xlink:href="#id8">August</textPath></text><path d="M 84.43433777217949 114.09645910891817 l -22.500137100472692 20.376406601897347 a51.35546269694984,51.35546269694984 0 0,0 -0.5877538562584179,-0.6603476882421886 l 22.847549806379448 -19.986084743914294" fill="#86ff25" stroke="none" /><line stroke="#e1ed5e" stroke-width="0.3" x1="26.63291911575756" x2="22.317208475507996" y1="142.92168965132927" y2="145.44649492493687" /><path d="M 25.769776987707644 143.4266507060508 a86.0,86.0 0 0,1 -11.730757126820373,-40.83630448921669" fill="none" id="id9" stroke="none" /><text fill="#e1ed5e" style="font-size:6.75px; font-family:Arial;" text-anchor="middle"><textPath startOffset="21.46611528233685" xlink:href="#id9">September</textPath></text><path d="M 81.87401531095188 110.60418214915194 l -0.37218212383155835 0.21773642102614643 a21.43119448319876,21.43119448319876 0 0,0 -0.18354083561302298,-0.3200189175943842 l 0.37587495559695855 -0.21129765757345526" fill="#ff0000" stroke="none" /><path d="M 81.51974371655577 109.97397251340807 l -13.967505840381559 7.538397584758402 a36.87194561315607,36.87194561315607 0 0,0 -0.2966391775338635,-0.5611295325012219 l 14.095197526140307 -7.296853037171054" fill="#ffd013" stroke="none" /><path d="M 79.4281124754447 104.21870165774334 l -1.4114472564117269 0.2894471823907253 a22.44082026256786,22.44082026256786 0 0,0 -0.07434330332132708,-0.37907490197529725 l 1.4162204927087203 -0.26510855334747324" fill="#ff0f01" stroke="none" /><path d="M 79.35854240842038 103.8639653848113 l -1.2146962053201933 0.22738433415349132 a22.235795495475568,22.235795495475568 0 0,0 -0.0671876348383889,-0.3768239371128869 l 1.2184302824977709 -0.20644164630739073" fill="#ff0c01" stroke="none" /><path d="M 79.29508885075956 103.50808413554451 l -1.385016219699166 0.23466671229722796 a22.40475563522278,22.40475563522278 0 0,0 -0.061152442236902596,-0.38079631618376314 l 1.3888504162973594 -0.2107911664202511" fill="#ff0e01" stroke="none" /><path d="M 79.18660465613746 102.79330883721812 l -19.822478476031712 2.660320595841323 a41.000198964145284,41.000198964145284 0 0,0 -0.0878546225697847,-0.7002877828153664 l 19.865334607848347 -2.318715058738548" fill="#fbff18" stroke="none" /><path d="M 79.1416061653843 102.43462659150553 l -7.382641457611273 0.8617142504243412 a28.432761690046647,28.432761690046647 0 0,0 -0.0525568747988892,-0.48661138716077257 l 7.396380633911214 -0.7345065413787866" fill="#ff6209" stroke="none" /><line stroke="#e1ed5e" stroke-width="0.3" x1="15.007084014347285" x2="10.007500721073583" y1="101.09737516637583" y2="101.16192664675087" /><path d="M 14.007167355692545 101.11028546245083 a86.0,86.0 0 0,1 10.666146001902534,-42.60595125391555" fill="none" id="id10" stroke="none" /><text fill="#e1ed5e" style="font-size:6.75px; font-family:Arial;" text-anchor="middle"><textPath startOffset="22.20632615414155" xlink:href="#id10">October</textPath></text><path d="M 79.00175016825051 100.2711162175752 l -4.582138542910168 0.05916169586100499 a25.58252045632969,25.58252045632969 0 0,0 -0.0018951807816788909,-0.44037326993446513 l 4.582478020981349 0.01972105227713553" fill="#ff3b05" stroke="none" /><path d="M 79.01574976396665 99.18683210126434 l -11.934646954333493 -0.46248360922337844 a32.94360452348377,32.94360452348377 0 0,0 0.026835533579971156,-0.5664557000587612 l 11.924917812520022 0.6678504159051488" fill="#ff9e0e" stroke="none" /><line stroke="#e1ed5e" stroke-width="0.3" x1="26.266209847984243" x2="21.928928074336255" y1="57.711370442889674" y2="55.22380399835377" /><path d="M 25.398753493254645 57.213857153982495 a86.0,86.0 0 0,1 29.58750427330803,-30.492523968695096" fill="none" id="id11" stroke="none" /><text fill="#e1ed5e" style="font-size:6.75px; font-family:Arial;" text-anchor="middle"><textPath startOffset="21.46611528233685" xlink:href="#id11">November</textPath></text><line stroke="#e1ed5e" stroke-width="0.3" x1="56.762969772571076" x2="54.21961505331055" y1="26.818313649435495" y2="22.513508569990535" /><path d="M 56.25429882871897 25.957352633546506 a86.0,86.0 0 0,1 42.265352541879196,-11.944610805530505" fill="none" id="id12" stroke="none" /><text fill="#e1ed5e" style="font-size:6.75px; font-family:Arial;" text-anchor="middle"><textPath startOffset="22.20632615414155" xlink:href="#id12">December</textPath></text><path d="M 92.23578459929587 80.48803036053334 l -0.3371306509947421 -0.8472308774620643 a21.91184276910292,21.91184276910292 0 0,0 0.3516504713841806,-0.1364349196792033 l 0.32249701461088515 0.852908501031819" fill="#ff0701" stroke="none" /><path d="M 94.63758080256005 79.69619591428918 l -2.6628799413665383 -10.082500200485448 a31.428218442040873,31.428218442040873 0 0,0 0.5242393126053855,-0.1336402734583204 l 2.4889317400761533 10.126843470112632" fill="#ff8a0c" stroke="none" /></svg>