<?xml version="1.0" encoding="utf-8" ?>
<svg baseProfile="full" height="200mm" version="1.1" viewBox="0,0,200,200" width="200mm" xmlns="http://www.w3.org/2000/svg" xmlns:ev="http://www.w3.org/2001/xml-events" xmlns:xlink="http://www.w3.org/1999/xlink"><defs /><rect fill="#1a1a1a" height="200" width="200" x="0" y="0" /><text alignment-baseline="middle" fill="#e1ed5e" style="dominant-baseline: central; font-size:9.0px; font-family:Arial;" text-anchor="middle" x="100.0" y="100.0">2024</text><line stroke="#e1ed5e" stroke-width="0.3" x1="100.0" x2="100.0" y1="15.0" y2="10.0" /><path d="M 100.0 14.0 a86.0,86.0 0 0,1 42.35913384403234,11.155469271406648" fill="none" id="id13" stroke="none" /><text fill="#e1ed5e" style="font-size:6.75px; font-family:Arial;" text-anchor="middle"><textPath startOffset="22.145653131862478" xlink:href="#id13">January</textPath></text><path d="M 102.15924093988457 79.11130261209362 l 3.7346560343853747 -36.12940932583698 a57.321920019859185,57.321920019859185 0 0,0 0.9779231425917188,0.10957832787988042 l -4.35431507857789 36.05997523745013" fill="#52ff2b" stroke="none" /><path d="M 103.23170211078529 79.25015418208739 l 0.3870889900525799 -2.485388995042855 a23.515352130994795,23.515352130994795 0 0,0 0.39833046555351276,0.06554512652431131 l -0.4296969586591632 2.478377870022875" fill="#ff0000" stroke="none" /><path d="M 103.58742460773223 79.30868818359171 l 0.812514223192291 -4.686366122120701 a25.756280773193524,25.756280773193524 0 0,0 0.434993246817074,0.0792702599575213 l -0.8928422035604188 4.6717276882318135" fill="#ff2103" stroke="none" /><path d="M 106.38641147887787 79.99465700312896 l 1.863463187955578 -5.8372718952403355 a27.127498529728772,27.127498529728772 0 0,0 0.4424072109964954,0.14542803757832762 l -1.9633931365998158 5.804422936259986" fill="#ff3505" stroke="none" /><path d="M 107.06938296918511 80.22567764915836 l 1.78763101564844 -5.000322107584077 a26.31025854621998,26.31025854621998 0 0,0 0.42398461499169615,0.15569302342379887 l -1.8732047822942608 4.968898235151556" fill="#ff2904" stroke="none" /><path d="M 107.74402155503746 80.48000691201159 l 1.5452069023672061 -3.8949307978229037 a25.1902446576486,25.1902446576486 0 0,0 0.40057951547348136,0.16291220163781184 l -1.6118408790311272 3.8678313396057984" fill="#ff1902" stroke="none" /><path d="M 108.4095320186766 80.7573450057729 l 2.8438024561802338 -6.507176548526121 a28.101447672373926,28.101447672373926 0 0,0 0.4403718947300984,0.19697274720840452 l -2.9550877537659637 6.4574000504078635" fill="#ff4306" stroke="none" /><path d="M 108.73861861582097 80.90454125486305 l 2.548037953945821 -5.5679227770079915 a27.123255789649228,27.123255789649228 0 0,0 0.42171662532716747,0.19738467437383517 l -2.643243293144493 5.523361871063623" fill="#ff3505" stroke="none" /><path d="M 109.71004243097381 81.37971332152246 l 1.759414062990195 -3.3739084532235997 a24.80510132529757,24.80510132529757 0 0,0 0.37586955558368196,0.20012936741139753 l -1.8170724343604368 3.343208618089629" fill="#ff1302" stroke="none" /><path d="M 110.34350942703115 81.72400993836675 l 1.9858563646834173 -3.5088179153139163 a25.0318021608186,25.0318021608186 0 0,0 0.3721484370302832,0.21486000029793254 l -2.0457972695740976 3.474211017739812" fill="#ff1702" stroke="none" /><line stroke="#e1ed5e" stroke-width="0.3" x1="143.13028292997686" x2="145.6673583964461" y1="26.7553504044142" y2="22.446841604673864" /><path d="M 143.63769802327073 25.89364864446614 a86.0,86.0 0 0,1 29.32050498858742,28.57503671076993" fill="none" id="id14" stroke="none" /><text fill="#e1ed5e" style="font-size:6.75px; font-family:Arial;" text-anchor="middle"><textPath startOffset="20.669276256404974" xlink:href="#id14">February</textPath></text><path d="M 110.65571695917076 81.90426304109057 l 3.201206863181207 -5.436349104348841 a27.30885227004349,27.30885227004349 0 0,0 0.4019176996515522,0.24134003060728107 l -3.2940573193901934 5.380595073205639" fill="#ff3805" stroke="none" /><path d="M 112.16784306229584 82.88440491214696 l 2.6033192199126853 -3.661894505404957 a25.492965872281005,25.492965872281005 0 0,0 0.35449667317116274,0.25662825337203504 l -2.665796903457816 3.6166654806598477" fill="#ff1d03" stroke="none" /><path d="M 112.45986205192187 83.09580414077388 l 3.648617856730832 -4.950050860004057 a27.14942402027068,27.14942402027068 0 0,0 0.3727835842399665,0.27974375136799473 l -3.7330544298815647 4.886688081372048" fill="#ff3605" stroke="none" /><path d="M 112.7482090630111 83.31218511350987 l 2.378831476054166 -3.1139667636711557 a24.918625804630324,24.918625804630324 0 0,0 0.33769490939780145,0.2625936040771293 l -2.431936330087193 3.0726721079732355" fill="#ff1502" stroke="none" /><line stroke="#e1ed5e" stroke-width="0.3" x1="172.87174338648825" x2="177.1583165268699" y1="56.24261187166439" y2="53.66864786411523" /><path d="M 173.72905801456457 55.72781907015455 a86.0,86.0 0 0,1 12.242430191666344,42.057860355516425" fill="none" id="id15" stroke="none" /><text fill="#e1ed5e" style="font-size:6.75px; font-family:Arial;" text-anchor="middle"><textPath startOffset="22.145653131862474" xlink:href="#id15">March</textPath></text><line stroke="#e1ed5e" stroke-width="0.3" x1="184.99686870605535" x2="189.99668451229388" y1="99.2704041080226" y2="99.22748670261217" /><path d="M 185.99683186730306 99.26182062694052 a86.0,86.0 0 0,1 -10.086455211305974,41.156179273409016" fill="none" id="id16" stroke="none" /><text fill="#e1ed5e" style="font-size:6.75px; font-family:Arial;" text-anchor="middle"><textPath startOffset="21.40746469413373" xlink:href="#id16">April</textPath></text><path d="M 120.35273937422433 105.17358676015961 l 14.956979340045837 3.8020056594269174 a36.43264326072732,36.43264326072732 0 0,0 -0.1592809473058771,0.6048157008533499 l -14.88950891193523 -4.05820186465307" fill="#ffb610" stroke="none" /><path d="M 120.05942366710727 106.21446072829308 l 4.228710357417526 1.3100652782257654 a25.42699246895034,25.42699246895034 0 0,0 -0.13274740696490336,0.4158293616158823 l -4.205598234675368 -1.3824636735330311" fill="#ff1c02" stroke="none" /><path d="M 119.94978838288452 106.5578916946017 l 5.789998371505709 1.903287468694669 a27.09479977772272,27.09479977772272 0 0,0 -0.14904020828118186,0.44061089307381895 l -5.756472741652162 -2.0024000362426486" fill="#ff3505" stroke="none" /><path d="M 119.83427380445688 106.89939002012753 l 58.80114863684935 20.454091845094542 a83.25708758222162,83.25708758222162 0 0,0 -0.48114599960071147,1.345850993699824 l -58.44136246720469 -21.460477795175287" fill="#4cd9ff" stroke="none" /><path d="M 119.58574465831526 107.57618678355244 l 6.053399039560562 2.34158479032437 a27.490505316416524,27.490505316416524 0 0,0 -0.17402972393405777,0.4386685889436326 l -6.012310640660379 -2.4451543964815667" fill="#ff3a05" stroke="none" /><path d="M 119.4528033332814 107.91128576633889 l 5.8090348051779355 2.3624838838392317 a27.2710617497493,27.2710617497493 0 0,0 -0.18008530746380177,0.43213918015885855 l -5.767623653177648 -2.461855573439368" fill="#ff3705" stroke="none" /><path d="M 119.31412917781788 108.2440532568976 l 5.806346596903484 2.4783840955073617 a27.313164699913706,27.313164699913706 0 0,0 -0.18776645512179957,0.42964639499242646 l -5.762946259764719 -2.577692560275633" fill="#ff3805" stroke="none" /><path d="M 119.16976305983485 108.57439118712176 l 5.542090397347094 2.4789065421893883 a27.071222580113186,27.071222580113186 0 0,0 -0.1933859020182652,0.42258309650855236 l -5.4987200304737724 -2.5736786209126294" fill="#ff3405" stroke="none" /><path d="M 118.5362547648365 109.86951160357373 l 5.558415581406764 2.959543218096405 a27.297212068479663,27.297212068479663 0 0,0 -0.22377819048214603,0.4117266658242695 l -5.506792041309279 -3.054524717395278" fill="#ff3805" stroke="none" /><line stroke="#e1ed5e" stroke-width="0.3" x1="174.33088141563837" x2="178.70328620479359" y1="141.23008692659167" y2="143.65538615756765" /><path d="M 175.20536237346943 141.71514677278685 a86.0,86.0 0 0,1 -30.301960400862466,31.631185727798858" fill="none" id="id17" stroke="none" /><text fill="#e1ed5e" style="font-size:6.75px; font-family:Arial;" text-anchor="middle"><textPath startOffset="22.145653131862474" xlink:href="#id17">May</textPath></text><path d="M 118.36410011445183 110.18625677009912 l 55.092300343355504 30.558770310297355 a84.0,84.0 0 0,0 -0.7102665399144867,1.254972919603509 l -54.559600438419636 -31.499999999999986" fill="#4dd2ff" stroke="none" /><path d="M 118.00360718960297 110.81064883170644 l 5.34722407630425 3.2108544195940047 a27.237178162120607,27.237178162120607 0 0,0 -0.2441385470450839,0.39878196887403994 l -5.291317564803761 -3.3021735045926017" fill="#ff3705" stroke="none" /><path d="M 117.81537515405839 111.11811171558189 l 5.276881414602055 3.2931642791736846 a27.220161447534792,27.220161447534792 0 0,0 -0.2507914129135709,0.39428575644661384 l -5.219572310062595 -3.38326371029897" fill="#ff3705" stroke="none" /><line stroke="#e1ed5e" stroke-width="0.3" x1="143.1302829299769" x2="145.66735839644613" y1="173.24464959558577" y2="177.55315839532614" /><path d="M 143.63769802327073 174.10635135553383 a86.0,86.0 0 0,1 -40.68552437913181,11.842963189579606" fill="none" id="id18" stroke="none" /><text fill="#e1ed5e" style="font-size:6.75px; font-family:Arial;" text-anchor="middle"><textPath startOffset="21.407464694133747" xlink:href="#id18">June</textPath></text><line stroke="#e1ed5e" stroke-width="0.3" x1="101.45913802915013" x2="101.54496967792366" y1="184.9874750549273" y2="189.98673829345242" /><path d="M 101.47630435890484 185.9873277026323 a86.0,86.0 0 0,1 -42.54439059252881,-10.42667462771756" fill="none" id="id19" stroke="none" /><text fill="#e1ed5e" style="font-size:6.75px; font-family:Arial;" text-anchor="middle"><textPath startOffset="22.145653131862474" xlink:href="#id19">July</textPath></text><line stroke="#e1ed5e" stroke-width="0.3" x1="58.13341422392154" x2="55.67067388415222" y1="173.97424548756322" y2="178.32567169271397" /><path d="M 57.64086615596768 174.84453072859336 a86.0,86.0 0 0,1 -31.369924170532247,-30.572349798747897" fill="none" id="id20" stroke="none" /><text fill="#e1ed5e" style="font-size:6.75px; font-family:Arial;" text-anchor="middle"><textPath startOffset="22.145653131862474" xlink:href="#id20">August</textPath></text><line stroke="#e1ed5e" stroke-width="0.3" x1="26.387840678322732" x2="22.057713659400548" y1="142.50000000000003" y2="145.00000000000006" /><path d="M 25.521815274538298 143.00000000000003 a86.0,86.0 0 0,1 -11.493303480769221,-40.785679425670985" fill="none" id="id21" stroke="none" /><text fill="#e1ed5e" style="font-size:6.75px; font-family:Arial;" text-anchor="middle"><textPath startOffset="21.40746469413373" xlink:href="#id21">September</textPath></text><line stroke="#e1ed5e" stroke-width="0.3" x1="15.003131293944662" x2="10.003315487706104" y1="100.72959589197737" y2="100.7725132973878" /><path d="M 14.003168132696942 100.73817937305945 a86.0,86.0 0 0,1 10.791469493833604,-42.45332614584628" fill="none" id="id22" stroke="none" /><text fill="#e1ed5e" style="font-size:6.75px; font-family:Arial;" text-anchor="middle"><textPath startOffset="22.145653131862435" xlink:href="#id22">October</textPath></text><line stroke="#e1ed5e" stroke-width="0.3" x1="26.387840678322718" x2="22.05771365940052" y1="57.49999999999999" y2="54.99999999999999" /><path d="M 25.521815274538284 56.99999999999999 a86.0,86.0 0 0,1 29.574782752854787,-30.34633250058573" fill="none" id="id23" stroke="none" /><text fill="#e1ed5e" style="font-size:6.75px; font-family:Arial;" text-anchor="middle"><textPath startOffset="21.40746469413373" xlink:href="#id23">November</textPath></text><line stroke="#e1ed5e" stroke-width="0.3" x1="56.869717070023135" x2="54.33264160355391" y1="26.7553504044142" y2="22.446841604673864" /><path d="M 56.362301976729285 25.89364864446614 a86.0,86.0 0 0,1 42.16139366436587,-11.88097634709845" fill="none" id="id24" stroke="none" /><text fill="#e1ed5e" style="font-size:6.75px; font-family:Arial;" text-anchor="middle"><textPath startOffset="22.145653131862474" xlink:href="#id24">December</textPath></text></svg>